<svg xmlns="http://www.w3.org/2000/svg" viewBox="0 0 750 500"><g id="freepik--background-complete--inject-45"><path d="M522.76,344.12v36.41h-8.58v4.94h8.58v25H683.2V387.72H671.31v-4.94H683.2v-7.43h5.28V372h-6.27V344.12Z" style="fill:#f5f5f5"></path><polygon points="640.59 344.23 640.59 410.02 683.2 410.02 683.2 387.31 671.32 387.31 671.32 382.77 683.2 382.93 683.2 375.51 688.58 375.51 688.48 371.68 682.21 371.56 682.21 344.12 640.59 344.23" style="fill:#ebebeb"></polygon><path d="M644.12,385.75c0,.32-29,.57-64.83.57s-64.84-.25-64.84-.57,29-.57,64.84-.57S644.12,385.44,644.12,385.75Z" style="fill:#e0e0e0"></path><path d="M644.12,380.53c0,.32-29,.57-64.83.57s-64.84-.25-64.84-.57,29-.57,64.84-.57S644.12,380.22,644.12,380.53Z" style="fill:#e0e0e0"></path><path d="M652,356c0,.32-29,.57-64.84.57s-64.84-.25-64.84-.57,29-.57,64.84-.57S652,355.71,652,356Z" style="fill:#e0e0e0"></path><path d="M652.76,394.32c0,.31-29,.57-64.84.57s-64.84-.26-64.84-.57,29-.57,64.84-.57S652.76,394,652.76,394.32Z" style="fill:#e0e0e0"></path><rect x="109.05" y="47.45" width="122.05" height="127.23" style="fill:#e0e0e0"></rect><rect x="100.78" y="47.45" width="122.05" height="127.23" style="fill:#fafafa"></rect><path d="M222.87,174.71H100.74V47.41H222.87Zm-122-.07h122V47.49h-122Z" style="fill:#e0e0e0"></path><rect x="117.19" y="64.55" width="89.24" height="93.02" style="fill:#fff"></rect><path d="M117.19,158.19a14.62,14.62,0,0,1-2.21,2.56c-1.42,1.51-3.42,3.54-5.67,5.75s-4.31,4.18-5.83,5.58a13.86,13.86,0,0,1-2.58,2.15,14.58,14.58,0,0,1,2.19-2.55c1.43-1.5,3.44-3.54,5.69-5.76s4.32-4.19,5.84-5.59A14.05,14.05,0,0,1,117.19,158.19Z" style="fill:#e0e0e0"></path><path d="M206.42,158a14.36,14.36,0,0,1,2.56,2.2c1.51,1.43,3.54,3.43,5.75,5.68s4.19,4.31,5.58,5.83a13.86,13.86,0,0,1,2.15,2.58,15,15,0,0,1-2.55-2.19c-1.5-1.43-3.54-3.44-5.76-5.69s-4.19-4.32-5.59-5.84A14.05,14.05,0,0,1,206.42,158Z" style="fill:#e0e0e0"></path><path d="M206.18,64.8a14.78,14.78,0,0,1,2.2-2.56c1.43-1.51,3.43-3.54,5.67-5.75s4.31-4.18,5.83-5.58a14.26,14.26,0,0,1,2.58-2.15,13.54,13.54,0,0,1-2.19,2.55c-1.42,1.5-3.43,3.54-5.68,5.76s-4.32,4.19-5.84,5.59A14.46,14.46,0,0,1,206.18,64.8Z" style="fill:#e0e0e0"></path><path d="M116.94,65a15.23,15.23,0,0,1-2.56-2.2c-1.5-1.43-3.54-3.43-5.75-5.68s-4.18-4.31-5.58-5.83a14.4,14.4,0,0,1-2.15-2.58,14.58,14.58,0,0,1,2.55,2.19c1.51,1.43,3.55,3.44,5.76,5.69s4.2,4.32,5.59,5.84A13.54,13.54,0,0,1,116.94,65Z" style="fill:#e0e0e0"></path><path d="M206.18,157.57a4,4,0,0,1,0-.45c0-.32,0-.74,0-1.3,0-1.16,0-2.84,0-5,0-4.41,0-10.82-.09-19,0-16.29-.1-39.5-.18-67.29l.35.35-89,0h0l.39-.4c0,34.14,0,66.08,0,93l-.34-.34,64.43.18,18.1.08,4.79,0,1.24,0,.43,0a1.57,1.57,0,0,1-.39,0l-1.21,0-4.72,0-18,.09-64.65.17h-.34v-.34c0-26.94,0-58.88-.06-93v-.39h.41l89,0h.34v.34c-.07,27.88-.13,51.17-.17,67.51,0,8.11-.07,14.49-.09,18.88,0,2.15,0,3.81,0,5,0,.54,0,.95,0,1.26A2.87,2.87,0,0,1,206.18,157.57Z" style="fill:#e0e0e0"></path><rect x="146.92" y="96.17" width="29.78" height="29.78" style="fill:#ebebeb"></rect><polygon points="433.31 435.95 511.22 469.92 680.1 460.11 606.69 428.54 433.31 435.95" style="fill:#fff"></polygon><path d="M433.31,436l173.37-7.66h.05l0,0,73.43,31.56,1,.44-1.1.06-.35,0-168.54,9.73h-.05l0,0L433.31,436l78,33.8-.09,0,168.53-9.86.35,0-.09.5-73.41-31.59.11,0Z" style="fill:#e0e0e0"></path><path d="M492.5,455l11.42-.56L533.71,453h0l0,0,22.5,8.65,1.13.43-1.21.07H556l-42.84,2.36h0l0,0L492.5,455l20.73,9.19-.09,0L556,461.7h.22l-.07.51-22.49-8.69h.1l-29.56,1.08Z" style="fill:#e0e0e0"></path><path d="M539.63,452.72l43.73-2.67h.06l0,0L608,459.49h0l1.16.45-1.24.05-45.75,2h0l0,0-22.43-9.26,22.58,8.9-.08,0,45.74-2.13-.08.51h0l-24.49-9.46.1,0Z" style="fill:#e0e0e0"></path><path d="M591.8,450l43.73-2.67h.05l0,0,24.51,9.43h0l1.16.45-1.24.05-45.75,2h-.05l0,0L591.8,450l22.58,8.9-.08,0L660,456.71l-.08.51h0l-24.49-9.46.1,0Z" style="fill:#e0e0e0"></path><path d="M463.17,441.08l11.41-.56,29.79-1.42h.05l.05,0,22.5,8.65,1.13.44-1.21.06-.22,0-42.84,2.35h-.05l0,0-20.56-9.55,20.73,9.19-.1,0,42.84-2.48.22,0-.08.51-22.49-8.69.1,0-29.56,1.08Z" style="fill:#e0e0e0"></path><path d="M510.29,438.78,554,436.11h.05l0,0,24.5,9.43h0l1.17.45-1.25.06-45.75,2h0l0,0-22.44-9.26,22.58,8.9-.08,0,45.75-2.12-.08.5h0L554,436.57l.1,0Z" style="fill:#e0e0e0"></path><path d="M562.46,436l43.74-2.67h.1l24.5,9.43h0l1.17.45-1.25.06-45.75,2h0l0,0L562.46,436l22.58,8.9-.08,0,45.75-2.12-.08.5h0l-24.5-9.46h.1Z" style="fill:#e0e0e0"></path><path d="M80.86,255.67a5.43,5.43,0,1,1,5.43,5.43A5.43,5.43,0,0,1,80.86,255.67Z" style="fill:#e0e0e0"></path><path d="M97.28,226.75a3.38,3.38,0,1,1,3.38,3.38A3.39,3.39,0,0,1,97.28,226.75Z" style="fill:#e0e0e0"></path><path d="M82.8,202.82a3.1,3.1,0,1,1,3.93,1.94A3.1,3.1,0,0,1,82.8,202.82Z" style="fill:#e0e0e0"></path><circle cx="64.11" cy="310.89" r="5.05" style="fill:#e0e0e0"></circle><circle cx="65.32" cy="350.35" r="3.62" style="fill:#e0e0e0"></circle><path d="M63.91,391.93a2.57,2.57,0,1,1-2.57-2.57A2.57,2.57,0,0,1,63.91,391.93Z" style="fill:#e0e0e0"></path><circle cx="79.13" cy="310.89" r="5.05" style="fill:#e0e0e0"></circle><path d="M100.83,346.73a3.62,3.62,0,1,1-3.62-3.63A3.62,3.62,0,0,1,100.83,346.73Z" style="fill:#e0e0e0"></path><path d="M86.62,387a2.57,2.57,0,1,1-1.93-3.08A2.57,2.57,0,0,1,86.62,387Z" style="fill:#e0e0e0"></path><path d="M78.09,280.86a8.35,8.35,0,1,1-8.35-8.35A8.35,8.35,0,0,1,78.09,280.86Z" style="fill:#e0e0e0"></path><path d="M75.24,245.25a5.44,5.44,0,1,1-5.44-5.43A5.44,5.44,0,0,1,75.24,245.25Z" style="fill:#e0e0e0"></path><path d="M57,255.67a5.44,5.44,0,1,1-5.44-5.43A5.44,5.44,0,0,1,57,255.67Z" style="fill:#e0e0e0"></path><path d="M40.56,284.59a3.38,3.38,0,1,1-3.38-3.38A3.38,3.38,0,0,1,40.56,284.59Z" style="fill:#e0e0e0"></path><path d="M55.05,308.52a3.1,3.1,0,1,1-3.93-1.95A3.09,3.09,0,0,1,55.05,308.52Z" style="fill:#e0e0e0"></path><path d="M103.92,230.48S95.26,250,91.75,254.16a19.38,19.38,0,0,1-6.36-3.8s10.36-19.81,12.14-23.16Z" style="fill:#ebebeb"></path><path d="M103.23,222.67c-.13-.41-13.7-21-13.7-21l-6,4.1,13,21.39Z" style="fill:#ebebeb"></path><path d="M88.77,200.4s8.78-9.88,2.64-13.25-7.79,8.26-7.23,11.61L89,200.59" style="fill:#ebebeb"></path><path d="M93.62,410H50.9a13.52,13.52,0,0,1,13.52-13.52H80.09A13.52,13.52,0,0,1,93.62,410Z" style="fill:#e0e0e0"></path><path d="M70.48,287.17c.13,0,.24,24.56.24,54.84s-.11,54.85-.24,54.85-.24-24.55-.24-54.85S70.35,287.17,70.48,287.17Z" style="fill:#e0e0e0"></path><path d="M61.06,283.71s-5,8.11-3.63,24.16H83.67s1.62-19.08-4.59-24.61Z" style="fill:#ebebeb"></path><polygon points="58.26 315.12 70.29 315.12 69.16 349.07 60.92 349.07 58.26 315.12" style="fill:#ebebeb"></polygon><polygon points="60.75 351.39 58.26 390.35 64.27 391.49 69.66 352.53 60.75 351.39" style="fill:#ebebeb"></polygon><path d="M55.63,396.46s.08-4.79,4.92-5,5.38,5,5.38,5Z" style="fill:#ebebeb"></path><polygon points="75.81 316.44 86.75 311.43 99.85 342.76 92.35 346.19 75.81 316.44" style="fill:#ebebeb"></polygon><polygon points="92.56 346.73 81.46 384.15 87.08 386.61 101 349.82 92.56 346.73" style="fill:#ebebeb"></polygon><path d="M78.82,389.91c.31.52,14.8,5.95,14.8,5.95s3.44-3.06-7.4-8l-2.32-1.07a3.44,3.44,0,0,0-4.67,2Z" style="fill:#ebebeb"></path><path d="M56.6,248.26c-.4.1.34,21.47,5,29.4,0,0,16.85-.55,17.26,0s5.86-18.6,5.37-28.89C84.26,248.77,72.42,244.53,56.6,248.26Z" style="fill:#ebebeb"></path><path d="M67.73,215.08S57,215.32,59,229s4.2,13.69,4.27,14,13.51-.94,13.51-.94S84.1,214.5,67.73,215.08Z" style="fill:#ebebeb"></path><path d="M34.4,280.86s8.66-19.5,12.17-23.68a19.37,19.37,0,0,1,6.35,3.8s-10.36,19.81-12.14,23.16Z" style="fill:#ebebeb"></path><path d="M35.09,288.67c.13.41,13.69,21,13.69,21l6-4.1-13-21.39Z" style="fill:#ebebeb"></path><path d="M48.79,311.62S40,321.5,46.15,324.87s7.79-8.26,7.23-11.61l-4.85-1.83" style="fill:#ebebeb"></path><polygon points="387.47 429.07 465.38 463.04 634.26 453.23 560.85 421.66 387.47 429.07" style="fill:#fff"></polygon><path d="M387.47,429.07l173.37-7.66h0l.06,0L634.37,453l1,.44-1.1.06-.34,0-168.55,9.73h-.05l0,0-77.83-34.15,78,33.8-.09,0L633.91,453l.34,0-.09.5-73.41-31.59.11,0Z" style="fill:#e0e0e0"></path><path d="M446.66,448.14l11.42-.56,29.79-1.42h.05l0,0,22.5,8.65,1.13.43-1.21.07h-.21l-42.85,2.36h-.05l0,0-20.57-9.54,20.73,9.19-.09,0,42.84-2.49h.22l-.08.51-22.49-8.69h.1l-29.56,1.08Z" style="fill:#e0e0e0"></path><path d="M493.79,445.84l43.73-2.67h.06l0,0,24.5,9.43h0l1.17.45-1.25.05-45.75,2h0l0,0-22.43-9.26,22.58,8.9-.08,0L562,452.59l-.09.51h0l-24.49-9.46.1,0Z" style="fill:#e0e0e0"></path><path d="M546,443.08l43.73-2.67h.06l0,0,24.51,9.43h0l1.16.45-1.24.05-45.75,2h-.05l0,0L546,443.08l22.58,8.9-.08,0,45.75-2.13-.09.51h0l-24.49-9.46.1,0Z" style="fill:#e0e0e0"></path><path d="M417.33,434.2l11.41-.56,29.79-1.42h.05l.05,0,22.5,8.65,1.13.44-1.21.06-.22,0L438,443.76h-.05l0,0-20.57-9.55,20.73,9.19-.09,0,42.83-2.48.22,0-.08.51-22.49-8.69.1,0L429,433.79Z" style="fill:#e0e0e0"></path><path d="M464.45,431.9l43.74-2.67h.05l.05,0,24.51,9.43h0l1.16.45-1.25.06-45.75,2h0l0,0-22.44-9.26L487,440.8l-.09,0,45.75-2.12-.08.5h0c-8.68-3.35-17-6.54-24.49-9.46l.1,0Z" style="fill:#e0e0e0"></path><path d="M516.62,429.14l43.74-2.67h.1l24.5,9.43h0l1.17.45-1.25.06-45.75,2h0l0,0-22.44-9.26,22.59,8.9-.09,0,45.75-2.12-.08.5h0l-24.49-9.46h.1Z" style="fill:#e0e0e0"></path></g><g id="freepik--Desk--inject-45"><path d="M707.89,409.13c0,.14-147.71.26-329.87.26s-329.91-.12-329.91-.26,147.68-.26,329.91-.26S707.89,409,707.89,409.13Z" style="fill:#263238"></path></g><g id="freepik--Pens--inject-45"><path d="M469.6,343.09h5.23a0,0,0,0,1,0,0v73.23a2.38,2.38,0,0,1-2.38,2.38H472a2.38,2.38,0,0,1-2.38-2.38V343.09a0,0,0,0,1,0,0Z" transform="translate(970.6 726.84) rotate(175.87)" style="fill:#e0e0e0"></path><path d="M469.66,395.87l7.44-.54,1.75,24.35a3.73,3.73,0,0,1-3.45,4h0a3.74,3.74,0,0,1-4-3.45Z" style="fill:#455a64"></path><rect x="468.54" y="384.65" width="1.45" height="31.68" transform="translate(966.14 766.16) rotate(175.87)" style="fill:#455a64"></rect><path d="M477.1,395.33c0,.16-3.05.59-7.5,1.08l.33-.39c.14,1.7.28,3.54.44,5.48.26,3.6.45,6.86.54,9.23a17.85,17.85,0,0,1,0,3.83,18.72,18.72,0,0,1-.56-3.79c-.24-2.36-.52-5.61-.78-9.21-.13-1.94-.25-3.79-.36-5.49l0-.36.35,0C474,395.32,477.08,395.17,477.1,395.33Z" style="fill:#263238"></path><rect x="477.66" y="345.13" width="5.23" height="59.03" style="fill:#e0e0e0"></rect><path d="M483.89,368.19h-7.45V343.77a3.73,3.73,0,0,1,3.72-3.73h0a3.73,3.73,0,0,1,3.73,3.73Z" style="fill:#455a64"></path><rect x="483.89" y="347.76" width="1.45" height="31.68" style="fill:#455a64"></rect><path d="M476.44,368.19c0-.16,3.08-.37,7.55-.54l-.36.37c0-1.71,0-3.56,0-5.51,0-3.6.05-6.87.12-9.24a17,17,0,0,1,.29-3.82,18.21,18.21,0,0,1,.28,3.82c.07,2.37.12,5.64.12,9.24,0,1.95,0,3.8,0,5.51v.36H484C479.53,368.42,476.44,368.35,476.44,368.19Z" style="fill:#263238"></path><rect x="488.2" y="358.98" width="5.23" height="59.03" style="fill:#e0e0e0"></rect><path d="M494.43,382H487V357.62a3.73,3.73,0,0,1,3.72-3.72h0a3.73,3.73,0,0,1,3.73,3.72Z" style="fill:#455a64"></path><rect x="494.43" y="361.62" width="1.45" height="31.68" style="fill:#455a64"></rect><path d="M487,382c0-.16,3.08-.37,7.55-.54l-.36.37c0-1.71,0-3.55,0-5.5,0-3.61.05-6.88.12-9.24a17,17,0,0,1,.29-3.83,18.26,18.26,0,0,1,.28,3.83c.07,2.36.12,5.63.12,9.24,0,1.95,0,3.79,0,5.5v.36h-.36C490.07,382.27,487,382.2,487,382Z" style="fill:#263238"></path><rect x="498.13" y="342.96" width="5.23" height="59.03" style="fill:#e0e0e0"></rect><path d="M504.37,366h-7.46V341.61a3.73,3.73,0,0,1,3.73-3.73h0a3.73,3.73,0,0,1,3.73,3.73Z" style="fill:#455a64"></path><rect x="504.37" y="345.6" width="1.45" height="31.68" style="fill:#455a64"></rect><path d="M496.91,366c0-.16,3.08-.37,7.55-.53l-.35.36c0-1.7,0-3.55,0-5.5,0-3.61,0-6.87.12-9.24a18.21,18.21,0,0,1,.28-3.82,17.71,17.71,0,0,1,.29,3.82c.07,2.37.12,5.63.12,9.24,0,1.95,0,3.8,0,5.5v.37h-.36C500,366.26,496.92,366.19,496.91,366Z" style="fill:#263238"></path><path d="M505.16,432.32c-11.09,5.23-22.27,5.15-33.53,0l-4.41-49c13.49,4,27.81,3.58,42.74,0Z" style="fill:#4071FF"></path></g><g id="freepik--Storyboard--inject-45"><rect x="327.3" y="65.44" width="357.45" height="256.27" style="fill:#fff"></rect><path d="M684.74,321.71c0-1.74-.08-100.73-.21-256.27l.21.21-357.42,0h0l.26-.26c0,91.81,0,178.9,0,256.27l-.23-.24,357.44.24L327.3,322h-.24v-.24c0-77.37,0-164.46,0-256.27v-.26h.28l357.42,0H685v.21C684.83,221,684.74,320,684.74,321.71Z" style="fill:#263238"></path><rect x="319.15" y="58.09" width="357.45" height="256.27" style="fill:#fff"></rect><path d="M676.59,314.36c0-1.74-.08-100.73-.21-256.27l.21.21-357.41.05h0l.26-.26c0,91.81,0,178.9,0,256.27l-.23-.24,357.44.24-357.44.24h-.24v-.24c0-77.37,0-164.46,0-256.27v-.26h.29l357.41.05h.21v.21C676.68,213.63,676.59,312.62,676.59,314.36Z" style="fill:#263238"></path><path d="M340.32,215l.78,64h10.61s4.55-7.84,8.2-9.54,2.87-2.36,2.87-2.36-1.1-3.84.07-5.33,4.57-1.52,4.57-1.52,1.6-2.1,3.4-2.28,4.34-.14,4.34-.14,2-2.91,4-2.42,1.55-1.4,5.23-2.09,10.22,2.6,10.22,2.6h8.73l-5.48-10.81-1.29-8.85s-5.08-4.91-5.08-9,3.43-9.43,3.43-9.43L396.8,215Z" style="fill:#ebebeb"></path><path d="M451.94,214.51l-1,.9,2.36,2s-.9.31-1.87,4.47-3.39,14.74-6.61,16.43c0,0,9.39-1.34,14.85,1.23s13.73,12.26,13.73,12.26,7.8,4.35,8.26,6.77,0-44.07,0-44.07Z" style="fill:#ebebeb"></path><path d="M397.51,234.15a12.29,12.29,0,0,0-.62-4.06,9.33,9.33,0,0,1-.41-4.08,3.48,3.48,0,0,1,2.6-2.88c1.43-.23,2.81.76,4.25.64s2.34-1.08,3.41-1.84a12.11,12.11,0,0,1,18.91,7.46,30.36,30.36,0,0,0,.6,3.16,4,4,0,0,0,1.89,2.5c1.69.81,3-1.12,2.89-3a10.77,10.77,0,0,1,.38-2.82c.32-1.12,2.13-1.34,3-.59a5.32,5.32,0,0,1,1.58,3.87c-.14,1.16-.16,3.55-.35,4.7s-.81,1.59,0,2.43a3.24,3.24,0,0,0,3.05.74,7.38,7.38,0,0,0,2.86-1.57,21.91,21.91,0,0,0,8.08-16.35c0-1.76,0-3.77,1.26-5l-2.49-1.42c.56.44,1.3-.58.93-1.19s-1.15-1.56-1.87-1.55c-15,.27-29.93.27-44.11.48a6.28,6.28,0,0,0-2.87.64,7.94,7.94,0,0,0-2.14,2c-1.94,2.27-4.14,4.58-4.64,7.52-.66,3.85,1.75,7.49,4.05,10.65" style="fill:#e0e0e0"></path><path d="M390.63,247.83c-.16-1.94-.32-3.89-.47-5.83a65.7,65.7,0,0,0-29.91,5.23c-.35-1.14-.7-2.25-1-3.27-3.07,3.46-5.85,6.12-8.84,9.41,4.41.94,8.24,1.51,12.51,2-.45-1.22-.88-2.52-1.3-3.83A67.24,67.24,0,0,1,390.63,247.83Z" style="fill:#e0e0e0"></path><path d="M390.63,247.83h-.53l-1.63-.08c-1.4-.06-3.45-.11-6,0a68.86,68.86,0,0,0-20.77,4.05l.15-.29,1.3,3.82.13.37-.39,0c-3.93-.45-8.18-1.07-12.53-2l-.44-.1.3-.33c.71-.78,1.47-1.6,2.25-2.42,2.28-2.38,4.54-4.67,6.59-7l.3-.34.13.43,1,3.28-.34-.16a65.42,65.42,0,0,1,17.39-4.74,63.46,63.46,0,0,1,12.62-.38h.11V242c.12,1.88.21,3.34.28,4.38,0,.46.05.82.06,1.1a2.39,2.39,0,0,1,0,.36,2.48,2.48,0,0,1-.06-.4l-.12-1.13c-.09-1-.23-2.45-.41-4.29l.11.11a67.39,67.39,0,0,0-12.55.54,66.58,66.58,0,0,0-17.25,4.8l-.26.11-.08-.26c-.34-1.08-.69-2.17-1-3.27l.43.09c-2.06,2.33-4.32,4.63-6.59,7-.78.82-1.54,1.63-2.24,2.41l-.14-.43c4.33.93,8.56,1.56,12.48,2l-.26.33c-.45-1.33-.89-2.64-1.29-3.85l-.08-.22.22-.08a66.73,66.73,0,0,1,20.92-3.88,60,60,0,0,1,6.06.15c.7,0,1.21.12,1.58.16Z" style="fill:#263238"></path><path d="M483.45,279.76s0-.41,0-1.19,0-1.95,0-3.46c0-3,0-7.5,0-13.24,0-11.47-.06-28.05-.1-48.52l.19.18-144.2.08h0l.26-.26c0,23.35,0,45.82,0,66.41l-.25-.25,103.51.12,29.92.07,8,0h2.07l.72,0h-.69l-2,0-7.94,0-29.86.07L339.24,280H339v-.24c0-20.59,0-43.06,0-66.41v-.27h.27l144.2.08h.18v.19c0,20.52-.07,37.14-.1,48.64,0,5.72,0,10.17,0,13.19q0,2.25,0,3.42C483.46,279.37,483.45,279.76,483.45,279.76Z" style="fill:#263238"></path><path d="M370.82,275.38s-.26.25-.86.24a2.85,2.85,0,0,1-2.1-1.22,22.78,22.78,0,0,1-3.32-7.19,23.43,23.43,0,0,1-.76-4.31,1.86,1.86,0,0,1,.23-1.07,1.47,1.47,0,0,1,.89-.59,9.56,9.56,0,0,1,1.68-.17,11.7,11.7,0,0,1,2.4.17,2.31,2.31,0,0,1,.85.24c0,.09-1.25-.18-3.23,0a10.27,10.27,0,0,0-1.59.22,1,1,0,0,0-.75,1.22,26.3,26.3,0,0,0,3.89,11.3,2.81,2.81,0,0,0,1.82,1.24A3.53,3.53,0,0,0,370.82,275.38Z" style="fill:#263238"></path><path d="M373.71,272.41s-.24-.16-.6-.53a14.13,14.13,0,0,1-1.37-1.71,17.57,17.57,0,0,1-2.75-6.65,16.84,16.84,0,0,1-.25-2,3.12,3.12,0,0,1,.3-2,2.42,2.42,0,0,1,1.64-.86,11,11,0,0,1,1.51-.18,10.44,10.44,0,0,1,2.19.11,2.19,2.19,0,0,1,.78.21c0,.09-1.14-.13-2.94.05a12,12,0,0,0-1.45.23,2.05,2.05,0,0,0-1.33.71,2.7,2.7,0,0,0-.19,1.69c0,.65.14,1.32.25,2a19.34,19.34,0,0,0,2.55,6.54C373,271.52,373.78,272.35,373.71,272.41Z" style="fill:#263238"></path><path d="M392.41,256.27a5.51,5.51,0,0,1-.87-.63,12.69,12.69,0,0,0-2.48-1.53,6.16,6.16,0,0,0-4.18-.39,3.91,3.91,0,0,0-2,1.38,3.27,3.27,0,0,0-.69,2.49l.1.58-.5-.32a16.31,16.31,0,0,0-1.73-1,3.7,3.7,0,0,0-2.93-.26,2.23,2.23,0,0,0-1.07.83,2.34,2.34,0,0,0-.32,1.27,14.59,14.59,0,0,0,.43,2.63c.19.83.41,1.59.63,2.27a31.38,31.38,0,0,0,1.2,3.2,6.56,6.56,0,0,1,.46,1.17,5.54,5.54,0,0,1-.65-1.08,24.46,24.46,0,0,1-1.36-3.17c-.25-.69-.48-1.45-.7-2.28a14.3,14.3,0,0,1-.49-2.73,2.78,2.78,0,0,1,.38-1.54,2.72,2.72,0,0,1,1.31-1,4.17,4.17,0,0,1,3.33.27,14.69,14.69,0,0,1,1.8,1.05l-.4.26a3.8,3.8,0,0,1,.8-2.88,4.36,4.36,0,0,1,2.3-1.52,6.36,6.36,0,0,1,4.45.52,10.53,10.53,0,0,1,2.45,1.7A3.72,3.72,0,0,1,392.41,256.27Z" style="fill:#263238"></path><path d="M375.48,275a5.49,5.49,0,0,1,.57.4,6.08,6.08,0,0,0,1.71.92,3.24,3.24,0,0,0,2.83-.31,2,2,0,0,0,.85-1.46,1.7,1.7,0,0,0-.76-1.62l.23-.37a8.48,8.48,0,0,0,4.57,1.78,3.27,3.27,0,0,0,2.37-.94,2.37,2.37,0,0,0,.56-2.47l.49-.14a2,2,0,0,0,.51,1,2.21,2.21,0,0,0,1.8.74,2,2,0,0,0,1.53-1.05,2.1,2.1,0,0,0,.16-1.82,3.71,3.71,0,0,0-1.22-1.43,13.8,13.8,0,0,1-1.5-1.25,7.41,7.41,0,0,1-2.1-4.67,7.27,7.27,0,0,1,1.29-4.56,6.29,6.29,0,0,1,.85-1,1.55,1.55,0,0,1,.35-.28s-.44.44-1,1.37a7.21,7.21,0,0,0-1.09,4.42,6.93,6.93,0,0,0,1,3,8.26,8.26,0,0,0,2.55,2.59,4.2,4.2,0,0,1,1.38,1.61,2.59,2.59,0,0,1-.17,2.25,2.52,2.52,0,0,1-1.94,1.33,2.76,2.76,0,0,1-2.23-.91,2.47,2.47,0,0,1-.63-1.31l-.33-2.1.83,2a2.89,2.89,0,0,1-.66,3,3.8,3.8,0,0,1-2.75,1.08,8.82,8.82,0,0,1-4.81-1.9l.22-.37a2.07,2.07,0,0,1,.94,2,2.31,2.31,0,0,1-1.05,1.71,3.47,3.47,0,0,1-3.11.26,5.77,5.77,0,0,1-1.7-1.05C375.62,275.18,375.46,275,375.48,275Z" style="fill:#263238"></path><path d="M389.76,266.11c7.91-4.37,17.71-4.36,26.35-1.69s22.29,8.78,24.95,15.24l12.23.1c-6.35-10.05-20.68-17.3-30-20.45a50.5,50.5,0,0,0-16.08-3c-5.49-.23-11.06-.17-16.25,1.63a2,2,0,0,0-2.38,1.81c-.31,2.19.22,5.69,1.54,6.85" style="fill:#263238"></path><path d="M356.06,276.77a15.67,15.67,0,0,1,7.71-7.13c.08.13-2,1.31-4.11,3.29S356.19,276.86,356.06,276.77Z" style="fill:#263238"></path><path d="M452.32,259.72a8.93,8.93,0,0,1-1.47-.48c-.93-.34-2.28-.8-4-1.31s-3.73-1-6-1.51a64.28,64.28,0,0,0-15.08-1.25c-2.33.1-4.43.27-6.18.51s-3.16.45-4.13.64a8.27,8.27,0,0,1-1.53.23,10.09,10.09,0,0,1,1.49-.42c1-.26,2.37-.54,4.12-.82a59.08,59.08,0,0,1,6.21-.62A59.39,59.39,0,0,1,441,256a56.89,56.89,0,0,1,6,1.63c1.68.56,3,1.07,3.93,1.47A8.6,8.6,0,0,1,452.32,259.72Z" style="fill:#263238"></path><path d="M457.26,240.11a8,8,0,0,1-1.49-.17c-.95-.15-2.32-.37-4-.57a25.88,25.88,0,0,0-6-.1,17.63,17.63,0,0,0-6.87,2.28,30.66,30.66,0,0,0-9.87,8.78,34.44,34.44,0,0,0-2.18,3.41,8.92,8.92,0,0,1-.74,1.29,7.79,7.79,0,0,1,.56-1.39,27.14,27.14,0,0,1,2.06-3.53,29.6,29.6,0,0,1,9.92-9,17.84,17.84,0,0,1,7.07-2.3,25.6,25.6,0,0,1,6.07.21c1.7.25,3.07.53,4,.74A8.53,8.53,0,0,1,457.26,240.11Z" style="fill:#263238"></path><path d="M472.82,252.79a19.56,19.56,0,0,1-2.09-2.11c-1.27-1.32-3-3.13-5.14-4.94a39.9,39.9,0,0,0-5.75-4.18c-1.58-.92-2.62-1.37-2.58-1.45a2.6,2.6,0,0,1,.77.23,17.79,17.79,0,0,1,2,.9,32.09,32.09,0,0,1,5.92,4.1,50,50,0,0,1,5.07,5.09A14.64,14.64,0,0,1,472.82,252.79Z" style="fill:#263238"></path><path d="M475.62,275.87a19.4,19.4,0,0,0,2.79-3.53,14.19,14.19,0,0,0,1.67-4.53,13.48,13.48,0,0,0-.17-5.87,13.68,13.68,0,0,0-2.76-5.18,14.37,14.37,0,0,0-3.71-3.1,20.42,20.42,0,0,0-4.16-1.68,4.21,4.21,0,0,1,1.21.17,12,12,0,0,1,3.13,1.19,13.83,13.83,0,0,1,3.89,3.11,13,13,0,0,1,3,11.46,13.72,13.72,0,0,1-1.83,4.62,12,12,0,0,1-2.12,2.59A4.36,4.36,0,0,1,475.62,275.87Z" style="fill:#263238"></path><path d="M469,260.83c-.06.08-1.2-.76-3.21-1.83a30.57,30.57,0,0,0-8.34-3,30.92,30.92,0,0,0-7.6-.57,41.62,41.62,0,0,0-4.38.49v-.13a1.54,1.54,0,0,1,.48.21,1.48,1.48,0,0,1-.52-.08l-.26-.06.27-.07a22.2,22.2,0,0,1,4.38-.77,28.05,28.05,0,0,1,7.74.47,30,30,0,0,1,4.76,1.39,26.46,26.46,0,0,1,3.64,1.76,20.49,20.49,0,0,1,2.28,1.5A3.65,3.65,0,0,1,469,260.83Z" style="fill:#263238"></path><path d="M442.34,244.57c.08.15-2.93,1.66-6,4.35a73.35,73.35,0,0,0-5.2,5.32,7.15,7.15,0,0,1,1.19-1.86,26.76,26.76,0,0,1,3.67-3.86,26.33,26.33,0,0,1,4.36-3.05A7.38,7.38,0,0,1,442.34,244.57Z" style="fill:#263238"></path><path d="M451.94,249.48a14.45,14.45,0,0,1-2.35.66c-1.46.37-3.47.91-5.65,1.6s-4.14,1.41-5.55,1.95a13,13,0,0,1-2.31.8,10.22,10.22,0,0,1,2.17-1.14,50.19,50.19,0,0,1,5.53-2.11,52,52,0,0,1,5.73-1.46A9.5,9.5,0,0,1,451.94,249.48Z" style="fill:#263238"></path><path d="M434.46,239.58a22,22,0,0,0,1.09-2.59,6.85,6.85,0,0,0,.28-3c-.14-1.2.1-2.46-.38-3.67a3.91,3.91,0,0,0-1.09-1.44,2.45,2.45,0,0,0-.7-.45,2.71,2.71,0,0,0-.79-.16,1.18,1.18,0,0,0-1.12.69,3.69,3.69,0,0,0-.37,1.3c-.08.85-.06,1.57-.14,2.07a1.58,1.58,0,0,1-.21.74,3.75,3.75,0,0,1,0-.76c0-.48,0-1.18,0-2.08a3.62,3.62,0,0,1,.35-1.47,1.69,1.69,0,0,1,.57-.69,1.57,1.57,0,0,1,.94-.28,3.35,3.35,0,0,1,1,.17,3.43,3.43,0,0,1,.86.53,4.3,4.3,0,0,1,1.24,1.66,5.84,5.84,0,0,1,.34,2c0,.64,0,1.23,0,1.8a6.9,6.9,0,0,1-.39,3.12,9.07,9.07,0,0,1-1,1.89C434.68,239.4,434.49,239.6,434.46,239.58Z" style="fill:#263238"></path><path d="M436.75,223.77a26.16,26.16,0,0,0-2.8,2.48,26.85,26.85,0,0,0-2,3.15,7.14,7.14,0,0,1,4.81-5.63Z" style="fill:#263238"></path><path d="M390.63,247.83h-.53l-1.63-.08c-1.4-.06-3.45-.11-6,0a68.86,68.86,0,0,0-20.77,4.05l.15-.29,1.3,3.82.13.37-.39,0c-3.93-.45-8.18-1.07-12.53-2l-.44-.1.3-.33c.71-.78,1.47-1.6,2.25-2.42,2.28-2.38,4.54-4.67,6.59-7l.3-.34.13.43,1,3.28-.34-.16a65.42,65.42,0,0,1,17.39-4.74,63.46,63.46,0,0,1,12.62-.38h.11V242c.12,1.88.21,3.34.28,4.38,0,.46.05.82.06,1.1a2.39,2.39,0,0,1,0,.36,2.48,2.48,0,0,1-.06-.4l-.12-1.13c-.09-1-.23-2.45-.41-4.29l.11.11a67.39,67.39,0,0,0-12.55.54,66.58,66.58,0,0,0-17.25,4.8l-.26.11-.08-.26c-.34-1.08-.69-2.17-1-3.27l.43.09c-2.06,2.33-4.32,4.63-6.59,7-.78.82-1.54,1.63-2.24,2.41l-.14-.43c4.33.93,8.56,1.56,12.48,2l-.26.33c-.45-1.33-.89-2.64-1.29-3.85l-.08-.22.22-.08a66.73,66.73,0,0,1,20.92-3.88,60,60,0,0,1,6.06.15c.7,0,1.21.12,1.58.16Z" style="fill:#263238"></path><path d="M423.42,236.53a7.32,7.32,0,0,1-1.6-.86,7.57,7.57,0,0,0-4-1.22,3.75,3.75,0,0,0-2.12.69,4.65,4.65,0,0,0-1.22,1.41,16.83,16.83,0,0,1-.84,1.59,4,4,0,0,1,.52-1.76,4.52,4.52,0,0,1,1.25-1.62,4,4,0,0,1,2.39-.83,7.07,7.07,0,0,1,4.21,1.43A5.43,5.43,0,0,1,423.42,236.53Z" style="fill:#263238"></path><path d="M405.57,256.1a2.4,2.4,0,0,1-1-.79,20,20,0,0,1-2-2.82l-1.24-2.05c-.22-.38-.45-.72-.69-1.15A7.27,7.27,0,0,1,400,248a61.77,61.77,0,0,1-1.21-6.19c-.7-4.41-1.23-8.41-1.65-11.29-.19-1.37-.35-2.51-.48-3.43a5.33,5.33,0,0,1-.13-1.26,6.39,6.39,0,0,1,.33,1.23c.17.8.4,2,.65,3.4.51,2.88,1.1,6.87,1.79,11.27.38,2.18.67,4.31,1.16,6.13a7.14,7.14,0,0,0,.5,1.27l.66,1.14c.42.74.82,1.43,1.18,2.08a25.36,25.36,0,0,0,1.87,2.87C405.21,255.82,405.59,256.06,405.57,256.1Z" style="fill:#263238"></path><path d="M411.79,227.8a10.25,10.25,0,0,0-2.31,2.37,10.57,10.57,0,0,0-1,3.15c-.06,0-.19-.37-.18-1a5.17,5.17,0,0,1,.72-2.4,5,5,0,0,1,1.78-1.77C411.37,227.81,411.77,227.75,411.79,227.8Z" style="fill:#263238"></path><path d="M406.58,238.32c-.07.14-1.88-.75-4.27-1.25s-4.41-.44-4.42-.6a9.39,9.39,0,0,1,4.52.09A9.29,9.29,0,0,1,406.58,238.32Z" style="fill:#263238"></path><path d="M405.57,240.11a10.64,10.64,0,0,0-2.41-.83,9.76,9.76,0,0,0-2.54.25c0-.05.18-.28.65-.5a3.88,3.88,0,0,1,3.78.45C405.45,239.79,405.61,240.07,405.57,240.11Z" style="fill:#263238"></path><path d="M419,251.15a11.67,11.67,0,0,0-7.91,2,7.22,7.22,0,0,1,7.91-2Z" style="fill:#263238"></path><path d="M417.23,235.81a1,1,0,0,0-1,.63,1.64,1.64,0,0,0,.12,1.26,1.71,1.71,0,0,0,1.19,1,1.37,1.37,0,0,0,1.41-.86,1.55,1.55,0,0,0-.41-1.64,1.8,1.8,0,0,0-1.67-.38" style="fill:#263238"></path><path d="M412.79,248.24a13.59,13.59,0,0,1-2,1.79,4.43,4.43,0,0,1-.54.42.69.69,0,0,1-.89-.12,1.43,1.43,0,0,1-.25-.83l-.06-.79c-.07-1.1-.14-2.27-.22-3.51-.14-2.49-.25-4.75-.29-6.38a12.59,12.59,0,0,1,0-2.66,13.87,13.87,0,0,1,.33,2.63c.15,1.63.31,3.89.45,6.38.06,1.24.13,2.41.18,3.51a4.23,4.23,0,0,0,.16,1.38c.15.24.55-.06.87-.31A13.17,13.17,0,0,1,412.79,248.24Z" style="fill:#263238"></path><path d="M418.54,228.6c.07.13-1.74,1.15-3.66,2.81s-3.2,3.3-3.33,3.21a10.82,10.82,0,0,1,3-3.6A10.53,10.53,0,0,1,418.54,228.6Z" style="fill:#263238"></path><path d="M446.11,217.8a27,27,0,0,1-7.71,8c-.1-.12,1.77-1.76,3.89-4S446,217.71,446.11,217.8Z" style="fill:#263238"></path><path d="M450.06,221.89a17.19,17.19,0,0,1-.65,3,35.63,35.63,0,0,1-2.57,6.93,18,18,0,0,1-4.62,5.79,12.39,12.39,0,0,1-1.89,1.22,2.17,2.17,0,0,1-.77.3c-.05-.08,1-.59,2.42-1.81a19.24,19.24,0,0,0,4.39-5.74,43.32,43.32,0,0,0,2.68-6.8A20.8,20.8,0,0,1,450.06,221.89Z" style="fill:#263238"></path><path d="M399.64,215.41a17,17,0,0,0-2.48,2,11.31,11.31,0,0,0-2.91,6.88,16,16,0,0,0,1.5,7.45c.82,1.8,1.53,2.82,1.45,2.87s-.23-.22-.56-.67a18.39,18.39,0,0,1-1.22-2,14.94,14.94,0,0,1-1.69-7.64,11.05,11.05,0,0,1,3.17-7.11,7.86,7.86,0,0,1,1.93-1.42A2.77,2.77,0,0,1,399.64,215.41Z" style="fill:#263238"></path><path d="M436.24,212.23a7,7,0,0,1-.84,2,24.65,24.65,0,0,1-6.86,8.06,7.64,7.64,0,0,1-1.87,1.16,62.83,62.83,0,0,0,5.34-5.15A57.89,57.89,0,0,0,436.24,212.23Z" style="fill:#263238"></path><path d="M438.32,212.49a6.15,6.15,0,0,1-.72,1.92,21.89,21.89,0,0,1-2.64,4.17,22.79,22.79,0,0,1-3.5,3.49,6.5,6.5,0,0,1-1.72,1.12,59.23,59.23,0,0,0,4.81-4.93A60.56,60.56,0,0,0,438.32,212.49Z" style="fill:#263238"></path><path d="M353.82,279.78c2.84-4.56,5.36-8.52,11.39-10.85a24.66,24.66,0,0,0,2.8,5.37c-2.59,1.4-4.22,2.84-5.22,5.61-3.38-.28-5.47,0-9-.13" style="fill:#263238"></path><path d="M385.27,269.28a4.82,4.82,0,0,1-1.3-1.38,14.21,14.21,0,0,1-2.76-8.59,4.91,4.91,0,0,1,.26-1.87,25.52,25.52,0,0,0,.92,6.23A25,25,0,0,0,385.27,269.28Z" style="fill:#263238"></path><path d="M401.76,262.8a10,10,0,0,1,1.64,2.13,11,11,0,0,1,1.27,2.66,6.71,6.71,0,0,1,.12,3.63,5.14,5.14,0,0,1-2.18,2.93,7.94,7.94,0,0,1-2.73,1.12,14,14,0,0,1-2,.26,2.15,2.15,0,0,1-.72,0c0-.09,1-.19,2.59-.6a8.16,8.16,0,0,0,2.55-1.16,4.72,4.72,0,0,0,1.94-2.67,6.46,6.46,0,0,0-.07-3.36,11.93,11.93,0,0,0-1.13-2.6A21.54,21.54,0,0,1,401.76,262.8Z" style="fill:#263238"></path><path d="M409,274.6a6.15,6.15,0,0,0,1.18-1.23,4.11,4.11,0,0,0,.57-1.7,5,5,0,0,0-.32-2.18,10.08,10.08,0,0,0-2.36-3.36,7.76,7.76,0,0,1-1.2-1.3,5.19,5.19,0,0,1,1.45,1,8.77,8.77,0,0,1,2.59,3.45,4.91,4.91,0,0,1,.31,2.42,4,4,0,0,1-.74,1.85C409.79,274.51,409,274.66,409,274.6Z" style="fill:#263238"></path><path d="M406.3,213.66a10.33,10.33,0,0,0-2.88,7.25c-.06,0-.21-.44-.26-1.2a7.26,7.26,0,0,1,2.13-5.36C405.84,213.83,406.26,213.61,406.3,213.66Z" style="fill:#263238"></path><path d="M400.6,213.61c.13.1-1,1.58-1.72,3.69s-.87,3.94-1,3.93a9.64,9.64,0,0,1,2.74-7.62Z" style="fill:#263238"></path><path d="M431.11,231.42a3,3,0,0,1,0,1,3.86,3.86,0,0,1-1.13,2.5,2.27,2.27,0,0,1-1.88.59,2.44,2.44,0,0,1-1.65-1.54,25.43,25.43,0,0,1-1.2-4.79,11.08,11.08,0,0,0-1.7-4.44,7,7,0,0,0-3.07-2.28,21.83,21.83,0,0,0-2.54-.83,4.54,4.54,0,0,1-.94-.3,3.34,3.34,0,0,1,1,.1,15.7,15.7,0,0,1,2.63.69,7.08,7.08,0,0,1,3.32,2.34,11.25,11.25,0,0,1,1.82,4.61,28.74,28.74,0,0,0,1.12,4.7,2,2,0,0,0,1.31,1.31,1.93,1.93,0,0,0,1.56-.44,4,4,0,0,0,1.16-2.25A4.51,4.51,0,0,1,431.11,231.42Z" style="fill:#263238"></path><path d="M449.24,213s.13,0,.31.23a2.09,2.09,0,0,1,.53,1,2.14,2.14,0,0,1-.35,1.75,2.33,2.33,0,0,1-2.18.9l.08-.38,3.85.94,1.13.27-1.15.19a6.14,6.14,0,0,0-2.92,1.38,10.69,10.69,0,0,0-2.31,2.77c-1.14,1.93-1.86,4-2.81,5.77a13.82,13.82,0,0,1-1.57,2.38,9.18,9.18,0,0,1-1.87,1.66,6.11,6.11,0,0,1-3.41,1.08,4,4,0,0,1-1-.14l-.32-.12c0-.06.47.09,1.29.05a6.08,6.08,0,0,0,3.21-1.18,9.05,9.05,0,0,0,1.74-1.63A12.89,12.89,0,0,0,443,227.6c.91-1.73,1.61-3.81,2.8-5.81a11.26,11.26,0,0,1,2.43-2.9,6.63,6.63,0,0,1,3.17-1.45l0,.46-3.82-1,.08-.38a2,2,0,0,0,1.86-.71,1.93,1.93,0,0,0,.39-1.52A2.79,2.79,0,0,0,449.24,213Z" style="fill:#263238"></path><path d="M383.9,234.7a48,48,0,0,1-7.18.89,48.82,48.82,0,0,1-7.22.37,51.31,51.31,0,0,1,7.18-.89A52.31,52.31,0,0,1,383.9,234.7Z" style="fill:#263238"></path><path d="M379.52,231.78a48.24,48.24,0,0,1-7.06,1.31,51.47,51.47,0,0,1-7.14.79,48.24,48.24,0,0,1,7.06-1.31A49.7,49.7,0,0,1,379.52,231.78Z" style="fill:#263238"></path><path d="M460.89,232.61a40.55,40.55,0,0,1,3.23-5.6,40.56,40.56,0,0,1,3.67-5.31,39,39,0,0,1-3.23,5.59A40.83,40.83,0,0,1,460.89,232.61Z" style="fill:#263238"></path><path d="M462.05,233.42a9.89,9.89,0,0,1,1.18-1.95c.88-1.34,1.9-2.86,3-4.55s2.13-3.23,3-4.57a10.59,10.59,0,0,1,1.34-1.83,9.78,9.78,0,0,1-1,2c-.69,1.22-1.71,2.87-2.89,4.65s-2.31,3.36-3.16,4.48A9.22,9.22,0,0,1,462.05,233.42Z" style="fill:#263238"></path><path d="M463.5,234.15a54.15,54.15,0,0,1,4.33-6.21,53,53,0,0,1,4.76-5.9,57.87,57.87,0,0,1-4.34,6.21A55.12,55.12,0,0,1,463.5,234.15Z" style="fill:#263238"></path><path d="M466.35,235.29a51.24,51.24,0,0,1,4.09-6.11,54,54,0,0,1,4.51-5.8,51.24,51.24,0,0,1-4.09,6.11A51.13,51.13,0,0,1,466.35,235.29Z" style="fill:#263238"></path><path d="M467.72,238.73a55.5,55.5,0,0,1,4.36-6.3,55.15,55.15,0,0,1,4.79-6,56.94,56.94,0,0,1-4.37,6.29A58,58,0,0,1,467.72,238.73Z" style="fill:#263238"></path><path d="M432.22,231.94a3.24,3.24,0,0,1-.43,2.68l-.35-.34a1.4,1.4,0,0,1,.8-.19,1.48,1.48,0,0,1,1.25.84,1.37,1.37,0,0,1-.09,1.22c-.38.61-.9.61-.88.55s.35-.21.55-.71a1.05,1.05,0,0,0,0-.85,1,1,0,0,0-.84-.53,1,1,0,0,0-.52.11l-.8.42.45-.77A12.37,12.37,0,0,0,432.22,231.94Z" style="fill:#263238"></path><path d="M428.11,248.05a29.41,29.41,0,0,1-.66-7.8,15.59,15.59,0,0,1,.59,3.88A15.18,15.18,0,0,1,428.11,248.05Z" style="fill:#263238"></path><path d="M479.78,287.94c0,.15-31.32.26-69.94.26s-69.95-.11-69.95-.26,31.31-.26,69.95-.26S479.78,287.8,479.78,287.94Z" style="fill:#263238"></path><path d="M408.27,294.27c0,.14-15.4.26-34.38.26s-34.39-.12-34.39-.26,15.39-.26,34.39-.26S408.27,294.12,408.27,294.27Z" style="fill:#263238"></path><path d="M479.78,294.27c0,.14-14,.26-31.31.26s-31.33-.12-31.33-.26,14-.26,31.33-.26S479.78,294.12,479.78,294.27Z" style="fill:#263238"></path><path d="M406.31,301.08c0,.15-15,.26-33.4.26s-33.41-.11-33.41-.26,14.95-.26,33.41-.26S406.31,300.94,406.31,301.08Z" style="fill:#263238"></path><path d="M653.52,287.94c0,.15-31.31.26-69.94.26s-70-.11-70-.26,31.31-.26,70-.26S653.52,287.8,653.52,287.94Z" style="fill:#263238"></path><path d="M582,294.27c0,.14-15.39.26-34.38.26s-34.39-.12-34.39-.26,15.39-.26,34.39-.26S582,294.12,582,294.27Z" style="fill:#263238"></path><path d="M653.52,294.27c0,.14-14,.26-31.31.26s-31.32-.12-31.32-.26,14-.26,31.32-.26S653.52,294.12,653.52,294.27Z" style="fill:#263238"></path><path d="M580.05,301.08c0,.15-15,.26-33.4.26s-33.41-.11-33.41-.26,15-.26,33.41-.26S580.05,300.94,580.05,301.08Z" style="fill:#263238"></path><path d="M655.39,166.39s0-.4,0-1.17,0-1.91,0-3.39c0-3,0-7.38,0-13,0-11.28-.06-27.58-.1-47.72l.18.19-141.78.07h0l.26-.26c0,23,0,45.06,0,65.3l-.25-.24,101.78.12,29.42.06,7.86,0,2,0h.71l-.68,0h-2l-7.81,0-29.36.06-101.95.12h-.24v-.25c0-20.24,0-42.33,0-65.3v-.26h.27l141.78.07h.19v.19c0,20.19-.07,36.53-.1,47.84,0,5.62,0,10,0,13q0,2.21,0,3.36C655.4,166,655.39,166.39,655.39,166.39Z" style="fill:#263238"></path><path d="M585.78,132.66a3.08,3.08,0,0,0-4.11-.13l1.59-1.38a3.65,3.65,0,0,0-4.18,3,4,4,0,0,0,3.08,4.26,3.87,3.87,0,0,0,4-1.57A3.42,3.42,0,0,0,585.78,132.66Z" style="fill:#263238"></path><path d="M581.4,131.86l4.73,2.93c3.23-8.12,6.37-18.81,9.12-27.5Q588.34,119.58,581.4,131.86Z" style="fill:#263238"></path><path d="M561,115.28c-.06.12-1.07-.33-2-1.27s-1.43-1.93-1.31-2,.76.74,1.67,1.63S561,115.15,561,115.28Z" style="fill:#263238"></path><path d="M572.51,105.94c-.11.09-.66-.35-1.23-1s-.94-1.24-.84-1.34.66.35,1.23,1S572.61,105.84,572.51,105.94Z" style="fill:#263238"></path><path d="M609.77,145.18a27,27,0,0,1-50.56,1.16Z" style="fill:#e0e0e0"></path><path d="M609.77,145.18a.91.91,0,0,1-.27,0l-.77,0-2.92.09-10.72.32-35.88.95.24-.35a26.44,26.44,0,0,0,3.67,6.4,27.17,27.17,0,0,0,8.8,7.42,26.21,26.21,0,0,0,10.3,3,27.52,27.52,0,0,0,9.68-1,25.94,25.94,0,0,0,7.66-3.66,27.6,27.6,0,0,0,8.26-9.08,29.67,29.67,0,0,0,1.49-3c.13-.33.24-.59.33-.79s.12-.29.13-.3a1.22,1.22,0,0,1-.08.27c-.07.22-.17.5-.28.85a25.14,25.14,0,0,1-1.41,3.09,27.17,27.17,0,0,1-8.23,9.28,26.14,26.14,0,0,1-7.75,3.77,27.6,27.6,0,0,1-9.83,1.06,26.74,26.74,0,0,1-10.51-3,27.84,27.84,0,0,1-9-7.56,27,27,0,0,1-3.74-6.53l-.14-.35h.37l36.11-.7,10.65-.17,2.85,0h1Z" style="fill:#263238"></path><path d="M564.74,136.44C563.36,128.92,567,121,574,117.9a33.52,33.52,0,0,1,1.1,5.73c1.4-4.25,4.57-7.2,7.4-10.67a99.23,99.23,0,0,0-16.71-.51s3.78,2.79,6.06,3.26A22.31,22.31,0,0,0,557.39,134Z" style="fill:#e0e0e0"></path><path d="M564.74,136.44l-.47-.14-1.41-.44-5.51-1.74-.11,0V134a21.87,21.87,0,0,1,3.61-9.89,22.3,22.3,0,0,1,10.89-8.61l0,.47a12.06,12.06,0,0,1-3.18-1.36c-1-.58-2-1.23-3-1.93l-.59-.42.73,0c3-.17,6.18-.2,9.4-.07,2.51.1,5,.3,7.35.57l.47.06-.3.36c-1.47,1.8-3,3.44-4.33,5.16a18.38,18.38,0,0,0-3.05,5.43l-.37,1.13-.09-1.19a30.67,30.67,0,0,0-1.07-5.69l.3.14a15.7,15.7,0,0,0-6.73,5.83,17.3,17.3,0,0,0-2.52,6.45,19,19,0,0,0-.23,4.47c0,.52.09.94.11,1.2a1.94,1.94,0,0,1,0,.39s0-.16-.08-.43-.14-.64-.2-1.15a17.79,17.79,0,0,1,.12-4.52,17.22,17.22,0,0,1,2.47-6.6,16,16,0,0,1,6.85-6l.23-.11.07.25a31,31,0,0,1,1.12,5.78l-.46-.06A18.83,18.83,0,0,1,578,118c1.34-1.75,2.88-3.39,4.33-5.17l.17.42c-2.37-.27-4.82-.47-7.31-.57-3.2-.13-6.34-.1-9.36.06l.14-.46a34.76,34.76,0,0,0,2.93,1.9,11.82,11.82,0,0,0,3,1.32l.81.2-.78.28a22,22,0,0,0-10.72,8.37,21.69,21.69,0,0,0-3.67,9.69l-.09-.15,5.35,1.87,1.44.51Z" style="fill:#263238"></path><path d="M593.05,136.34c-.15-.06.51-1.85.66-4.17s-.25-4.19-.1-4.23a10.27,10.27,0,0,1-.56,8.4Z" style="fill:#263238"></path><path d="M594.36,137.7a14.48,14.48,0,0,0,2.09-4.52,14.39,14.39,0,0,0-.06-5,3,3,0,0,1,.57,1.41,8.74,8.74,0,0,1-1.51,7C594.88,137.39,594.4,137.74,594.36,137.7Z" style="fill:#263238"></path><path d="M574.89,133c-.06,0-.25-.28-.39-.83a4.76,4.76,0,0,1,0-2.21,4.69,4.69,0,0,1,1-2c.39-.42.7-.59.74-.54a13.14,13.14,0,0,0-1.27,2.62A12.89,12.89,0,0,0,574.89,133Z" style="fill:#263238"></path><path d="M572.93,131.75a3.7,3.7,0,0,1,.21-3c.66-1.61,1.9-2.39,2-2.26a22.84,22.84,0,0,0-1.48,2.46A21.14,21.14,0,0,0,572.93,131.75Z" style="fill:#263238"></path><path d="M608,163.93a4.77,4.77,0,0,1,.54-.46l1.6-1.26A48.16,48.16,0,0,0,615.5,157a42.81,42.81,0,0,0,6.14-9.17,44.4,44.4,0,0,0,2.46-6,43.57,43.57,0,0,0,1.38-20.31A42.21,42.21,0,0,0,622.21,111a44,44,0,0,0-3.67-6.5l-1.18-1.65a4.67,4.67,0,0,1-.39-.6,3.54,3.54,0,0,1,.47.53l1.27,1.6a40.24,40.24,0,0,1,3.83,6.46A41.75,41.75,0,0,1,626,121.44a42.69,42.69,0,0,1,.22,13.64,40.76,40.76,0,0,1-4.11,13,41.55,41.55,0,0,1-6.28,9.19,43.62,43.62,0,0,1-5.52,5.1c-.71.54-1.28.92-1.67,1.18A2.72,2.72,0,0,1,608,163.93Z" style="fill:#263238"></path><path d="M553,103.67s-.57.81-1.53,2.29a45.26,45.26,0,0,0-3.57,6.55,43,43,0,0,0-3.09,10.59,43,43,0,0,0,4.27,26.27,42.86,42.86,0,0,0,6.29,9.06,49.09,49.09,0,0,0,5.45,5.1l1.62,1.23a4,4,0,0,1,.55.45,3,3,0,0,1-.61-.37c-.38-.26-1-.63-1.68-1.15a43.51,43.51,0,0,1-5.6-5,42.19,42.19,0,0,1-10.75-22,41.61,41.61,0,0,1,7-30.82c.51-.73.94-1.27,1.23-1.63A3.37,3.37,0,0,1,553,103.67Z" style="fill:#263238"></path><path d="M545.89,101.63a5.15,5.15,0,0,1-.42.65c-.29.4-.72,1-1.24,1.81a49.68,49.68,0,0,0-3.85,7,46.28,46.28,0,0,0-3.29,26,46.14,46.14,0,0,0,11.34,23.56,52.35,52.35,0,0,0,5.88,5.49l1.75,1.32a4.32,4.32,0,0,1,.59.48,3.61,3.61,0,0,1-.65-.4c-.41-.28-1-.68-1.81-1.24a47.55,47.55,0,0,1-6-5.4,45.66,45.66,0,0,1-11.58-23.73A45.57,45.57,0,0,1,540,111a45,45,0,0,1,4-7c.54-.78,1-1.37,1.32-1.76A3.63,3.63,0,0,1,545.89,101.63Z" style="fill:#263238"></path><path d="M618.79,164.89a3.94,3.94,0,0,1,.44-.52c.3-.34.77-.79,1.32-1.44a52.1,52.1,0,0,0,4.4-5.63,50.45,50.45,0,0,0,4.94-9.35,49.78,49.78,0,0,0,.4-35.7,54.14,54.14,0,0,0-2.95-6.5c-.39-.76-.74-1.31-1-1.71a3,3,0,0,1-.3-.61,3.44,3.44,0,0,1,.39.56c.24.38.62.91,1,1.66a44.58,44.58,0,0,1,3.12,6.47,48.74,48.74,0,0,1-5.38,45.39,45.71,45.71,0,0,1-4.55,5.56c-.58.63-1.07,1.06-1.39,1.37A3.68,3.68,0,0,1,618.79,164.89Z" style="fill:#263238"></path><path d="M552.4,130c0,.14-.88,0-1.79-.47s-1.46-1.13-1.36-1.24.76.33,1.61.79S552.44,129.81,552.4,130Z" style="fill:#263238"></path><path d="M554,127.59c0,.13-.89.25-1.91-.15s-1.61-1.07-1.51-1.17.78.34,1.7.69S554,127.44,554,127.59Z" style="fill:#263238"></path><path d="M553.07,144.59c0,.15-.38.32-.89.38s-.94,0-1-.13.38-.31.89-.38S553.05,144.45,553.07,144.59Z" style="fill:#263238"></path><path d="M586.87,101.14c.14,0,.14.7,0,1.5s-.38,1.42-.52,1.4-.14-.7,0-1.5S586.73,101.12,586.87,101.14Z" style="fill:#263238"></path><path d="M602.65,101.8c.12.09-.11.6-.51,1.14s-.82.92-.93.83.11-.59.51-1.14S602.54,101.72,602.65,101.8Z" style="fill:#263238"></path><path d="M613.84,110.1c0,.14-.78.55-1.79,1.09s-1.82,1-1.91.85.62-.77,1.67-1.32A3.57,3.57,0,0,1,613.84,110.1Z" style="fill:#263238"></path><path d="M614.11,112.61c.07.12-.52.58-1.31,1s-1.5.7-1.57.57.52-.58,1.31-1S614,112.48,614.11,112.61Z" style="fill:#263238"></path><path d="M619.76,125.46a11.76,11.76,0,0,1-4.87-.13,11.33,11.33,0,0,1,4.87.13Z" style="fill:#263238"></path><path d="M621.47,128.89a5.8,5.8,0,0,1-2.46,0,6.12,6.12,0,0,1-2.41-.52,11.83,11.83,0,0,1,4.87.51Z" style="fill:#263238"></path><path d="M616.07,142.19a3.06,3.06,0,0,1-2.21-.71c-1.1-.74-1.59-1.73-1.47-1.79s.76.69,1.76,1.36S616.11,142,616.07,142.19Z" style="fill:#263238"></path><path d="M618.57,141.53c-.09.11-.87-.36-1.74-1.05s-1.5-1.34-1.42-1.45.87.36,1.75,1.05S618.66,141.42,618.57,141.53Z" style="fill:#263238"></path><path d="M598.35,152.47c0,.14-5.76.26-12.86.26s-12.86-.12-12.86-.26,5.76-.26,12.86-.26S598.35,152.33,598.35,152.47Z" style="fill:#263238"></path><path d="M541.19,102.64c-.21.26-.42.52-.62.79a44.32,44.32,0,0,0,6.21,60.8c-8.45-1.43-21.88,0-30.45,0V103.77Z" style="fill:#ebebeb"></path><path d="M621.89,163.93c.22-.26-.52.28,0,0,7.46-4,13-14.49,14.65-25.44,1.65-11.1.89-24.85-8.67-36.25l25.57.4v61.59Z" style="fill:#ebebeb"></path><path d="M531.67,160.86a8.81,8.81,0,0,1-1.82-1.3c-1.08-.87-2.52-2.12-4-3.6s-2.79-2.9-3.68-4a8.47,8.47,0,0,1-1.32-1.8c.11-.1,2.37,2.45,5.36,5.39S531.77,160.74,531.67,160.86Z" style="fill:#263238"></path><path d="M532.29,156.19a13.34,13.34,0,0,1-2.24-1.66c-1.33-1.09-3.11-2.66-5-4.47s-3.53-3.54-4.67-4.82a14.11,14.11,0,0,1-1.75-2.16,16.13,16.13,0,0,1,2,1.91c1.21,1.21,2.88,2.88,4.76,4.69s3.63,3.41,4.89,4.57A16.7,16.7,0,0,1,532.29,156.19Z" style="fill:#263238"></path><path d="M530.84,148.1a9.2,9.2,0,0,1-2.1-1.28,37.06,37.06,0,0,1-8.41-8.36,8.83,8.83,0,0,1-1.29-2.1,16.38,16.38,0,0,1,1.58,1.88,56.12,56.12,0,0,0,3.94,4.37c1.64,1.62,3.22,3,4.4,3.92A15.82,15.82,0,0,1,530.84,148.1Z" style="fill:#263238"></path><path d="M527.59,137.56a19.27,19.27,0,0,1-3.46-2.92,19.17,19.17,0,0,1-3.09-3.31,20.32,20.32,0,0,1,3.45,2.93A20.67,20.67,0,0,1,527.59,137.56Z" style="fill:#263238"></path><path d="M527.59,130.66a21.06,21.06,0,0,1-3.9-4.33,21.32,21.32,0,0,1-3-5c.14-.08,1.51,2.12,3.42,4.69S527.7,130.55,527.59,130.66Z" style="fill:#263238"></path><path d="M528,123.14a20.12,20.12,0,0,1-4.54-3.91,20,20,0,0,1-3.61-4.78c.12-.09,1.74,2,4,4.42S528.11,123,528,123.14Z" style="fill:#263238"></path><path d="M529.41,118.29a13.53,13.53,0,0,1-2.64-2.66,13.08,13.08,0,0,1-2.25-3,14.22,14.22,0,0,1,2.64,2.66A13.7,13.7,0,0,1,529.41,118.29Z" style="fill:#263238"></path><path d="M531,114.63a12.53,12.53,0,0,1-3.08-2.84,12.56,12.56,0,0,1-2.4-3.45,26.8,26.8,0,0,1,2.79,3.11A27.52,27.52,0,0,1,531,114.63Z" style="fill:#263238"></path><path d="M650.28,107a54.09,54.09,0,0,1-6.23,3.93,54,54,0,0,1-6.49,3.48,50.1,50.1,0,0,1,6.23-3.93A50,50,0,0,1,650.28,107Z" style="fill:#263238"></path><path d="M651.55,114c.05.14-2.4,1.13-5.3,2.59s-5.17,2.82-5.25,2.69A30.1,30.1,0,0,1,651.55,114Z" style="fill:#263238"></path><path d="M650.54,121.94c.05.14-2.43,1.15-5.39,2.61s-5.29,2.78-5.37,2.66a22.25,22.25,0,0,1,5.14-3.13A22.52,22.52,0,0,1,650.54,121.94Z" style="fill:#263238"></path><path d="M649.7,127a29,29,0,0,1-5.15,3.07,28.76,28.76,0,0,1-5.5,2.4,45.86,45.86,0,0,1,5.26-2.87A44.83,44.83,0,0,1,649.7,127Z" style="fill:#263238"></path><path d="M649.29,131.84a40.15,40.15,0,0,1-5,4,38.73,38.73,0,0,1-5.32,3.55,39.64,39.64,0,0,1,5-4A39.18,39.18,0,0,1,649.29,131.84Z" style="fill:#263238"></path><path d="M649.73,138.79c.06.14-2.66,1.33-5.74,3.29s-5.33,3.9-5.44,3.78a6.58,6.58,0,0,1,1.37-1.4,31.3,31.3,0,0,1,3.79-2.82,30.89,30.89,0,0,1,4.17-2.22A6.71,6.71,0,0,1,649.73,138.79Z" style="fill:#263238"></path><path d="M649.33,147.72a15,15,0,0,1-2.34,1c-1.45.6-3.44,1.44-5.6,2.47s-4.07,2-5.44,2.81a16.5,16.5,0,0,1-2.26,1.17,10.25,10.25,0,0,1,2.07-1.49,55.09,55.09,0,0,1,11.1-5.3A10.88,10.88,0,0,1,649.33,147.72Z" style="fill:#263238"></path><path d="M650.74,156.42a54.26,54.26,0,0,1-6.93,2.45,51.17,51.17,0,0,1-7.09,2,101.16,101.16,0,0,1,14-4.41Z" style="fill:#263238"></path><path d="M655,280.18s0-.41,0-1.19,0-1.95,0-3.46c0-3,0-7.5,0-13.24,0-11.47-.06-28.05-.1-48.52l.19.18L510.78,214h0l.26-.26c0,23.35,0,45.82,0,66.41l-.25-.25,103.51.12,29.91.07,8,0h2.07l.71,0h-.68l-2,0-8,0-29.86.07-103.67.11h-.25v-.24c0-20.59,0-43.06,0-66.41v-.27h.27l144.19.08h.19v.19c0,20.52-.08,37.14-.1,48.64,0,5.72,0,10.17,0,13.19,0,1.5,0,2.64,0,3.43S655,280.18,655,280.18Z" style="fill:#263238"></path><path d="M613.45,235.27a5.77,5.77,0,0,1,2.14,0,15.48,15.48,0,0,1,5,1.46,15.74,15.74,0,0,1,4.23,3,6.33,6.33,0,0,1,1.34,1.68,25.79,25.79,0,0,0-5.79-4.2A25.2,25.2,0,0,0,613.45,235.27Z" style="fill:#263238"></path><path d="M570.69,238.06s.11-.15.35-.4.62-.6,1.12-1a23.93,23.93,0,0,1,4.62-3.17,17.25,17.25,0,0,1,3.64-1.4,33.89,33.89,0,0,1,4.39-.69c3.1-.37,6.53-.71,10.13-.81a43.62,43.62,0,0,1,5.28.17,39.37,39.37,0,0,1,4.86.82,32.61,32.61,0,0,1,7.77,3,30.7,30.7,0,0,1,4.68,3.08c.52.39.9.75,1.16,1a2.33,2.33,0,0,1,.38.37,19.19,19.19,0,0,1-1.67-1.19,34.75,34.75,0,0,0-4.73-2.92A34.34,34.34,0,0,0,605,232a40.79,40.79,0,0,0-4.8-.77,44.58,44.58,0,0,0-5.21-.16c-3.59.1-7,.42-10.09.77a37.61,37.61,0,0,0-4.35.62,17.57,17.57,0,0,0-3.57,1.32,26.48,26.48,0,0,0-4.66,3C571.26,237.6,570.71,238.09,570.69,238.06Z" style="fill:#263238"></path><path d="M549.92,244.55s-.09,0-.22-.15a1.79,1.79,0,0,1-.42-.63,3,3,0,0,1,.38-2.7,5,5,0,0,1,3.58-1.9c1.52-.21,3.15-.28,4.89-.43,3.46-.26,6.6-.47,8.87-.59l2.69-.12a3.32,3.32,0,0,1,1,0,4.39,4.39,0,0,1-1,.17c-.63.08-1.55.18-2.68.29-2.27.21-5.4.48-8.86.74-1.73.15-3.4.21-4.86.39a4.67,4.67,0,0,0-3.34,1.63,2.88,2.88,0,0,0-.5,2.42C549.65,244.29,550,244.51,549.92,244.55Z" style="fill:#263238"></path><path d="M548.5,252.26c-.07,0-.25-.42-.46-1.15a13,13,0,0,1-.53-3,5.09,5.09,0,0,1,.65-3c.43-.67.84-.94.88-.9s-.24.42-.55,1.08a5.79,5.79,0,0,0-.46,2.76,26.36,26.36,0,0,0,.37,2.89C548.52,251.77,548.57,252.24,548.5,252.26Z" style="fill:#263238"></path><path d="M549,252.26a4.81,4.81,0,0,1,1.68.78,43.8,43.8,0,0,0,3.79,2.25,19.86,19.86,0,0,0,4.16,1.36,7.76,7.76,0,0,1,1.79.47,5.65,5.65,0,0,1-1.86-.11,15.26,15.26,0,0,1-4.31-1.24,25.69,25.69,0,0,1-3.77-2.42A9.47,9.47,0,0,1,549,252.26Z" style="fill:#263238"></path><path d="M564.69,247.4a4.72,4.72,0,0,0-1.39.78,7,7,0,0,0-2.13,3.74,7.33,7.33,0,0,0-.15,3,7.2,7.2,0,0,0,1.3,3.13,5.7,5.7,0,0,0,6.9,2,6.42,6.42,0,0,0,3-2.56,8.43,8.43,0,0,0,1.06-3.6,7.45,7.45,0,0,0-2.53-5.69,5.26,5.26,0,0,0-4-1.4,11.57,11.57,0,0,0-1.6.25,1.49,1.49,0,0,1,.39-.19,4.91,4.91,0,0,1,1.2-.27,6.14,6.14,0,0,1,1.94.13,4.86,4.86,0,0,1,2.3,1.21A8.89,8.89,0,0,1,573,250.4a6.89,6.89,0,0,1,.82,3.52,8.93,8.93,0,0,1-1.1,3.84,6.87,6.87,0,0,1-3.27,2.78,6.47,6.47,0,0,1-4.29.18,6.36,6.36,0,0,1-3.19-2.41,7.64,7.64,0,0,1-1.35-3.35,8,8,0,0,1,.22-3.13,7,7,0,0,1,2.36-3.81,3.33,3.33,0,0,1,1.1-.56Q564.69,247.37,564.69,247.4Z" style="fill:#263238"></path><path d="M566.45,249.08s-.31.22-.81.67A7,7,0,0,0,564,252a4.79,4.79,0,0,0-.47,1.83,3.74,3.74,0,0,0,.54,2.05,3.87,3.87,0,0,0,7.32-1.2,4.55,4.55,0,0,0-1.23-3.73,5.07,5.07,0,0,0-2.24-1.62,7.06,7.06,0,0,0-1-.18s.09,0,.27-.07a2,2,0,0,1,.8.06,4.91,4.91,0,0,1,2.46,1.56,6.35,6.35,0,0,1,1.13,1.71,4,4,0,0,1,.3,2.36,4.63,4.63,0,0,1-3.6,3.76,4.05,4.05,0,0,1-2.77-.54,5.07,5.07,0,0,1-1.84-1.87,4.15,4.15,0,0,1-.55-2.31,5.16,5.16,0,0,1,.57-2,6.57,6.57,0,0,1,1.88-2.23A2.56,2.56,0,0,1,566.45,249.08Z" style="fill:#263238"></path><path d="M573.15,257.81c0-.15,8.33-1.16,18.64-2.26s18.69-1.88,18.7-1.74-8.33,1.16-18.64,2.26S573.17,258,573.15,257.81Z" style="fill:#263238"></path><path d="M616.08,258.46a1.44,1.44,0,0,1-.82.31,3.4,3.4,0,0,1-2.32-.57,4.36,4.36,0,0,1-1.86-3,8.76,8.76,0,0,1,.51-4.3,8.5,8.5,0,0,1,2.38-3.62,5.64,5.64,0,0,1,3.26-1.38,4.54,4.54,0,0,1,2.35.41c.51.26.73.49.71.51a6,6,0,0,1-.78-.32,4.76,4.76,0,0,0-2.24-.23,5.4,5.4,0,0,0-3,1.37,8.32,8.32,0,0,0-2.21,3.43,8.59,8.59,0,0,0-.52,4.05,4,4,0,0,0,1.59,2.78,3.35,3.35,0,0,0,2.09.68C615.78,258.54,616.06,258.41,616.08,258.46Z" style="fill:#263238"></path><path d="M615.91,258.38a19.05,19.05,0,0,0,2.05-.68,6.47,6.47,0,0,0,3.33-8.57,20.79,20.79,0,0,0-1-1.88,3.94,3.94,0,0,1,1.39,1.73A6.52,6.52,0,0,1,618.1,258,3.84,3.84,0,0,1,615.91,258.38Z" style="fill:#263238"></path><path d="M581.18,250.77a4,4,0,0,1,1.06-.15l2.88-.21,9.49-.64,9.5-.71,2.88-.21a4.13,4.13,0,0,1,1.06,0,4.56,4.56,0,0,1-1,.21c-.68.1-1.66.22-2.87.36-2.42.28-5.78.6-9.49.87s-7.08.42-9.52.49c-1.22,0-2.2.05-2.88.05A5.13,5.13,0,0,1,581.18,250.77Z" style="fill:#263238"></path><path d="M607.56,241.5a6.58,6.58,0,0,1,2.54-1.75,6.66,6.66,0,0,1,2.95-.92,14.84,14.84,0,0,1-2.72,1.38A15.62,15.62,0,0,1,607.56,241.5Z" style="fill:#263238"></path><path d="M581.39,244.37c0-.15,7.74-.91,17.3-1.7S616,241.36,616,241.5s-7.73.9-17.3,1.69S581.41,244.51,581.39,244.37Z" style="fill:#263238"></path><path d="M586.29,243c0-.07.49-.31,1.35-.4a3.46,3.46,0,0,0,1.35-.39c.44-.26.79-.76.57-1.22a1.56,1.56,0,0,0-1.34-.68,8.93,8.93,0,0,0-1.44.2c-.88.18-1.45,0-1.42-.09s.53,0,1.34-.27a6.45,6.45,0,0,1,1.53-.32,2,2,0,0,1,1.8.94,1.26,1.26,0,0,1-.06,1.15,1.87,1.87,0,0,1-.73.7,3.16,3.16,0,0,1-1.56.34C586.81,242.91,586.32,243,586.29,243Z" style="fill:#263238"></path><path d="M564.4,245.39a61.27,61.27,0,0,1,8.09-.94,62.31,62.31,0,0,1,8.13-.41,64.55,64.55,0,0,1-8.09.93A65.77,65.77,0,0,1,564.4,245.39Z" style="fill:#263238"></path><path d="M554.57,246.5s-.17.08-.27.34a.83.83,0,0,0,.4.95,5.73,5.73,0,0,0,3.84,1.11,5.2,5.2,0,0,0,.82-.13l-.15.39a6.08,6.08,0,0,0-2.7-2.21c-.83-.36-1.39-.42-1.38-.5a2.66,2.66,0,0,1,1.5.18,5.74,5.74,0,0,1,3,2.25l.21.31-.36.08a6.64,6.64,0,0,1-.91.15,5.67,5.67,0,0,1-4.13-1.35,1.41,1.41,0,0,1-.43-.7.81.81,0,0,1,.1-.62C554.33,246.43,554.58,246.47,554.57,246.5Z" style="fill:#263238"></path><path d="M547.5,248.3a27.73,27.73,0,0,1,5.25,1.43,28.4,28.4,0,0,1,5.09,1.93,58.53,58.53,0,0,1-10.34-3.36Z" style="fill:#263238"></path><path d="M549.46,244.65c.08-.12.89.28,1.8.89s1.59,1.2,1.51,1.32-.88-.28-1.8-.89S549.38,244.76,549.46,244.65Z" style="fill:#263238"></path><path d="M548.14,250.27c.08-.13,2,1,4.37,2s4.46,1.77,4.42,1.92a14.27,14.27,0,0,1-4.64-1.45A13.9,13.9,0,0,1,548.14,250.27Z" style="fill:#263238"></path><path d="M619,241c0-.14,1.33.16,2.94.2a28.83,28.83,0,0,1,2.94,0A7.13,7.13,0,0,1,619,241Z" style="fill:#263238"></path><path d="M589.71,236.41a4,4,0,0,1,.9-.28,23.54,23.54,0,0,1,2.52-.49,34.67,34.67,0,0,1,16.73,1.72,23.26,23.26,0,0,1,2.37,1,3.83,3.83,0,0,1,.82.46c0,.08-1.26-.45-3.31-1.1a40,40,0,0,0-16.56-1.7C591,236.23,589.73,236.5,589.71,236.41Z" style="fill:#263238"></path><path d="M585.9,239.92c-.09-.13.69-.79,1.5-1.72s1.38-1.76,1.52-1.69a3.72,3.72,0,0,1-1.13,2C586.93,239.53,586,240,585.9,239.92Z" style="fill:#263238"></path><path d="M582.36,240.22a10.47,10.47,0,0,1,1.9-2.67,10.25,10.25,0,0,1,2.29-2.34,10.57,10.57,0,0,1-1.89,2.67A10.42,10.42,0,0,1,582.36,240.22Z" style="fill:#263238"></path><path d="M580.77,232.88a13.46,13.46,0,0,1,4.73,2.25,6.82,6.82,0,0,1-2.48-.89A6.72,6.72,0,0,1,580.77,232.88Z" style="fill:#263238"></path><path d="M571.1,238.12c.12-.11,1.44,1.27,3.49,2.35s3.92,1.42,3.89,1.58a7.64,7.64,0,0,1-4.14-1.12A7.85,7.85,0,0,1,571.1,238.12Z" style="fill:#263238"></path><path d="M580,239.63a5.53,5.53,0,0,1-.63-2.34,5.8,5.8,0,0,1-.12-2.42,11.37,11.37,0,0,1,.75,4.76Z" style="fill:#263238"></path><path d="M578.5,239a8.93,8.93,0,0,1-.52-4.18c.15,0,.38.9.52,2.06S578.65,239,578.5,239Z" style="fill:#263238"></path><path d="M575.18,262.33c-12.64.68-28.74-4-37.7-12.93l4.48-6.82-13.49,6.86c-.58.3-1.22.66-1.38,1.29a2.34,2.34,0,0,0,.18,1.27q2.67,7.94,5.36,15.88c.31-2.13.61-4.25.92-6.37,10.09,8.7,24,12.07,39.71,11.68" style="fill:#e0e0e0"></path><path d="M573.26,273.19l-.2,0-.6,0-2.32.05a82,82,0,0,1-8.73-.44,62.52,62.52,0,0,1-13.1-2.82,45.19,45.19,0,0,1-14.92-8.34l.4-.15c-.29,2-.6,4.17-.91,6.37l-.15,1-.34-1-2.76-8.16c-.48-1.4-1-2.82-1.44-4.26-.24-.71-.49-1.43-.73-2.16l-.37-1.09a4.51,4.51,0,0,1-.29-1.19,1.56,1.56,0,0,1,.5-1.2,4.17,4.17,0,0,1,1-.67l2-1,3.93-2,7.62-3.87.84-.42-.52.79-4.49,6.81,0-.3a36.65,36.65,0,0,0,6.8,5.23,47,47,0,0,0,7,3.5,59.72,59.72,0,0,0,12.37,3.52,56.06,56.06,0,0,0,8.36.82c1,.05,1.73,0,2.24,0h.77l-.19,0-.58,0c-.51,0-1.26.09-2.24.07a51.1,51.1,0,0,1-8.4-.7,57.65,57.65,0,0,1-12.48-3.43,47.74,47.74,0,0,1-7.08-3.49,36.86,36.86,0,0,1-6.9-5.27l-.14-.14.11-.16,4.47-6.83.32.36-7.61,3.88-3.93,2-2,1c-.65.32-1.27.75-1.22,1.38a3.7,3.7,0,0,0,.27,1l.36,1.08c.25.73.49,1.45.73,2.17.49,1.43,1,2.85,1.44,4.25.94,2.81,1.86,5.54,2.75,8.17l-.49,0c.32-2.2.64-4.36.93-6.37l.06-.44.34.29a45.36,45.36,0,0,0,14.73,8.33,63.27,63.27,0,0,0,13,2.9c3.71.44,6.67.52,8.69.58l2.32,0,.6,0C573.19,273.17,573.26,273.18,573.26,273.19Z" style="fill:#263238"></path><path d="M626.61,241.28a3.25,3.25,0,0,1,1.17,2,11.6,11.6,0,0,1,.34,2.48c0,.47,0,1,.08,1.45a5.36,5.36,0,0,1-.22,1.62,6.11,6.11,0,0,1-1.54,2.69,4,4,0,0,1-2.27,1.14,7.77,7.77,0,0,1-1.68.11,1.64,1.64,0,0,1-.61-.08c0-.1.88-.09,2.21-.39a3.79,3.79,0,0,0,2-1.12,5.84,5.84,0,0,0,1.38-2.5,5,5,0,0,0,.21-1.46c0-.49,0-1-.05-1.44a13.68,13.68,0,0,0-.22-2.41A8,8,0,0,0,626.61,241.28Z" style="fill:#263238"></path><path d="M646.11,244.78s-.1.07-.31.16a3.88,3.88,0,0,1-1,.22,4.93,4.93,0,0,1-3.53-1.06,4.5,4.5,0,0,1-.87-.92c-.25-.35-.48-.73-.75-1.07a1.82,1.82,0,0,0-1-.7,2,2,0,0,0-1.29.26,6,6,0,0,0-2.17,2.13,12.5,12.5,0,0,0-1.34,3.09c-.27,1-.54,1.87-.8,2.78a1,1,0,0,1-.57.7.84.84,0,0,1-.48,0l-.31-.06a2.26,2.26,0,0,0-1.17.18,3.59,3.59,0,0,0-1.66,1.63,13,13,0,0,0-.81,2.07l-.08.26-.23-.15a4.55,4.55,0,0,0-1.25-.62,1.45,1.45,0,0,0-1.14.15,7.17,7.17,0,0,0-1.47,1.43,2.66,2.66,0,0,1-1.11.81.81.81,0,0,1-.48,0,2.54,2.54,0,0,0,1.42-1,6.77,6.77,0,0,1,1.48-1.57,1.83,1.83,0,0,1,1.39-.22,4.91,4.91,0,0,1,1.38.63l-.3.12a12,12,0,0,1,.8-2.17,4,4,0,0,1,1.86-1.86,2.68,2.68,0,0,1,1.44-.23c.26,0,.51.13.56.09a.63.63,0,0,0,.24-.38c.26-.9.52-1.83.79-2.77.67-2.26,1.83-4.48,3.8-5.5a2.39,2.39,0,0,1,1.6-.27,2.14,2.14,0,0,1,1.25.88,9.59,9.59,0,0,0,1.51,2A4.89,4.89,0,0,0,644.8,245,10,10,0,0,0,646.11,244.78Z" style="fill:#263238"></path><path d="M637.15,255.57a7,7,0,0,1-2,.71,32.23,32.23,0,0,1-10.35.92,7.18,7.18,0,0,1-2.14-.34c0-.16,3.29.15,7.3-.22S637.1,255.42,637.15,255.57Z" style="fill:#263238"></path><path d="M645,251.28a17.56,17.56,0,0,1-5.25,2.12,18,18,0,0,1-5.6.83c0-.16,2.47-.52,5.46-1.34S644.92,251.14,645,251.28Z" style="fill:#263238"></path><path d="M617.79,248.51s.33-.12.85.14a2.33,2.33,0,0,1,1.13,2,5.63,5.63,0,0,1-1,3.31,4.57,4.57,0,0,1-3.63,2.15,1.54,1.54,0,0,1-1.13-.58,2.4,2.4,0,0,1-.39-1.1,8.24,8.24,0,0,1,0-2.05,5.55,5.55,0,0,1,1.4-3.15,4,4,0,0,1,2-1.17,1.5,1.5,0,0,1,.85,0s-.3,0-.8.22a4.12,4.12,0,0,0-1.79,1.22,5.34,5.34,0,0,0-1.2,2.95,8.32,8.32,0,0,0,0,1.93c.07.65.4,1.22,1.05,1.23a3.35,3.35,0,0,0,1.85-.59,4.82,4.82,0,0,0,1.35-1.31,5.42,5.42,0,0,0,1-3,2.14,2.14,0,0,0-.87-1.85A3.46,3.46,0,0,0,617.79,248.51Z" style="fill:#263238"></path><path d="M593.34,241.13a10,10,0,0,1,2.53-2,10.17,10.17,0,0,1,2.83-1.56,20.27,20.27,0,0,1-5.36,3.55Z" style="fill:#263238"></path><path d="M591.93,240.8c-.08-.12.72-.85,1.79-1.65s2-1.34,2.1-1.22-.71.85-1.79,1.64A6,6,0,0,1,591.93,240.8Z" style="fill:#263238"></path><path d="M597.31,241c-.08-.12.66-.7,1.63-1.29s1.84-1,1.91-.85-.66.7-1.64,1.29S597.38,241.14,597.31,241Z" style="fill:#263238"></path><path d="M635.28,216.88a5,5,0,0,1,1.38.31,12.19,12.19,0,0,1,3.45,1.73,8.42,8.42,0,0,1,3.25,4.69,6.49,6.49,0,0,1-.05,3.44,7.71,7.71,0,0,1-1.93,3.14,22,22,0,0,1-5.82,3.9,31.4,31.4,0,0,1-5.32,2,29.16,29.16,0,0,1-3.76.79,6.11,6.11,0,0,1-1.4.12,8.64,8.64,0,0,1,1.36-.32,36.29,36.29,0,0,0,3.69-.95,34,34,0,0,0,5.22-2.11,22.36,22.36,0,0,0,5.66-3.83,7.36,7.36,0,0,0,1.81-2.93,6,6,0,0,0,.07-3.18,8.18,8.18,0,0,0-3-4.51,13.24,13.24,0,0,0-3.3-1.82A13.33,13.33,0,0,1,635.28,216.88Z" style="fill:#263238"></path><path d="M640.31,228.06s-.12.15-.38.37a10.07,10.07,0,0,1-1.21.87,5.21,5.21,0,0,1-2.18.78,3.18,3.18,0,0,1-2.81-1.06l.42-.09a6.84,6.84,0,0,1-.85,2.32,2.48,2.48,0,0,1-2.48,1.16,2,2,0,0,1-1.15-.79,6.71,6.71,0,0,1-.63-1.08,2.42,2.42,0,0,0-1.4-1.42.83.83,0,0,0-.77.23,2,2,0,0,0-.43.78c-.18.59-.31,1.19-.42,1.72-.42,2.14-.43,3.51-.52,3.51a3.19,3.19,0,0,1-.07-1,17.77,17.77,0,0,1,.23-2.62A16.23,16.23,0,0,1,626,230a2.43,2.43,0,0,1,.52-1,1.3,1.3,0,0,1,1.18-.38,2.82,2.82,0,0,1,1.76,1.66c.35.69.74,1.44,1.44,1.59a2,2,0,0,0,2-.94,6.86,6.86,0,0,0,.81-2.14l.12-.48.3.39a2.79,2.79,0,0,0,2.4,1,5,5,0,0,0,2.07-.63C639.68,228.45,640.27,228,640.31,228.06Z" style="fill:#263238"></path><path d="M653,231.64a5.44,5.44,0,0,1,.13,2,12.9,12.9,0,0,1-4.21,8.7,5,5,0,0,1-1.68,1.15A16,16,0,0,0,653,231.64Z" style="fill:#263238"></path><path d="M514.31,277.48V216h51.92L566.07,234H547.76l-3.82,4.06L522.7,248l8.92,26.8,3.78-8.1,27.86,8.11,14.25,3Z" style="fill:#ebebeb"></path><path d="M565.85,215.72a78.88,78.88,0,0,1,.26,9.15,78.88,78.88,0,0,1-.26,9.15,81.65,81.65,0,0,1-.26-9.15A81.65,81.65,0,0,1,565.85,215.72Z" style="fill:#263238"></path><path d="M566.78,234.49c0,.14-9.58.26-21.39.26s-21.38-.12-21.38-.26,9.57-.27,21.38-.27S566.78,234.34,566.78,234.49Z" style="fill:#263238"></path><path d="M595.55,229.25a25.94,25.94,0,0,1-.26-5.23,25.94,25.94,0,0,1,.26-5.23,26.85,26.85,0,0,1,.26,5.23A26.85,26.85,0,0,1,595.55,229.25Z" style="fill:#263238"></path><path d="M581.39,222.64a11.84,11.84,0,0,1-.08-1.29c0-.8-.07-1.94-.1-3.33l.18.18c-2.94.05-7.1.08-11.69.08L570,218h0v2.36c0,.77,0,1.52,0,2.24l-.25-.25c3.33,0,6.22.07,8.3.12l2.46.07a6.25,6.25,0,0,1,.93.06,3.8,3.8,0,0,1-.81.06l-2.41.07c-2.07,0-5,.1-8.47.12h-.25v-.25c0-.72,0-1.47,0-2.24V218h0l.26-.26c4.59,0,8.75,0,11.69.08h.19V218c0,1.48-.06,2.65-.09,3.44A6.69,6.69,0,0,1,581.39,222.64Z" style="fill:#263238"></path><path d="M581.39,229.25a11.24,11.24,0,0,1-.08-1.28c0-.81-.07-1.94-.1-3.33l.18.18c-2.94.05-7.1.08-11.69.08l.26-.26h0V227c0,.77,0,1.52,0,2.24l-.25-.25c3.33,0,6.22.07,8.3.12l2.46.07a6.25,6.25,0,0,1,.93.06,2.73,2.73,0,0,1-.81.07l-2.41.07c-2.07.05-5,.1-8.47.11h-.25v-.26c0-.72,0-1.47,0-2.24v-2.35h0l.26-.26c4.59,0,8.75,0,11.69.08h.19v.18c0,1.47-.06,2.65-.09,3.44A6.32,6.32,0,0,1,581.39,229.25Z" style="fill:#263238"></path><path d="M611.7,222.64a11.84,11.84,0,0,1-.08-1.29c0-.8-.08-1.94-.1-3.33l.18.18c-3,.05-7.1.08-11.69.08l.26-.26h0v1.18c0,.4,0,.79,0,1.18v2.24l-.25-.25c3.33,0,6.22.07,8.3.12l2.46.07a6.42,6.42,0,0,1,.93.06,4,4,0,0,1-.82.06l-2.4.07c-2.07,0-5,.1-8.47.12h-.25v-.25c0-.72,0-1.47,0-2.24V218h0l.26-.26c4.59,0,8.74,0,11.69.08h.18V218c0,1.48-.06,2.65-.1,3.44A6.29,6.29,0,0,1,611.7,222.64Z" style="fill:#263238"></path><path d="M611.7,229.25a11.24,11.24,0,0,1-.08-1.28c0-.81-.08-1.94-.1-3.33l.18.18c-3,.05-7.1.08-11.69.08-.24.23.31-.32.26-.26h0v1.18c0,.39,0,.78,0,1.17v2.24L600,229c3.33,0,6.22.07,8.3.12l2.46.07a6.42,6.42,0,0,1,.93.06,2.85,2.85,0,0,1-.82.07l-2.4.07c-2.07.05-5,.1-8.47.11h-.25v-.26c0-.72,0-1.47,0-2.24v-2.35h0l.26-.26c4.59,0,8.74,0,11.69.08h.18v.18c0,1.47-.06,2.65-.1,3.44A6,6,0,0,1,611.7,229.25Z" style="fill:#263238"></path><path d="M615.19,266.86c0,.14-6.71.3-15,.35s-15,0-15-.16,6.7-.31,15-.36S615.19,266.71,615.19,266.86Z" style="fill:#263238"></path><path d="M632.63,268.18a11.65,11.65,0,0,1-1.7.1l-4.65.09-15.34.33-15.34.5-4.64.16a11.28,11.28,0,0,1-1.71,0,10.9,10.9,0,0,1,1.7-.2c1.09-.09,2.68-.2,4.64-.32,3.92-.23,9.34-.49,15.34-.65s11.42-.2,15.34-.18c2,0,3.56,0,4.66.07A10.61,10.61,0,0,1,632.63,268.18Z" style="fill:#263238"></path><path d="M576.25,277.48c0-.4,3-14.3,3-14.3l32.41-1s27.11-.75,32.53-4.36a40.57,40.57,0,0,0,7.63-6.15V277.8Z" style="fill:#ebebeb"></path><path d="M616.31,218q-.09,6.1-.2,12.21l5,1.11a14.43,14.43,0,0,1,1.63-3.57,5,5,0,0,1,3.14-2.21c1.67-.29,3.29.57,4.93,1,2.13.54,4.75.15,5.93-1.7a4.62,4.62,0,0,0-.44-5.06,8.83,8.83,0,0,0-4.46-2.88c-5-1.63-10.51-.76-15.74.13" style="fill:#ebebeb"></path><path d="M450.28,126.46c1.13-2.7,1.71-5.76.36-8.56a5.59,5.59,0,0,0-1.47-1.9c-3.21-2.63-7.15-.68-9.63,1.91-2.06,2.14-3.61,4.8-6,6.57a15.35,15.35,0,0,1-9.93,2.53,75.36,75.36,0,0,1-10.29-1.7,5.37,5.37,0,0,0-3.76.25c-1.1.66-1.59,2-2.08,3.17-2.37,5.78-10.13,13.7-17.86,17.84l-.1,3.56,7,10.23c1.63,1.46,5.95,2.42,7.91,1.45,8.39-4.16,22.11-14.5,28.57-18.4C440,139.16,447.11,134,450.28,126.46Z" style="fill:#e0e0e0"></path><path d="M453.73,124.83a2.12,2.12,0,0,1-.13.52c-.11.33-.25.83-.49,1.46a30.05,30.05,0,0,1-2.51,5.06,40.79,40.79,0,0,1-5.14,6.63,83.7,83.7,0,0,1-7.54,7,143.78,143.78,0,0,1-15,11c-2,1.27-3.69,2.23-4.87,2.85-.59.31-1.06.53-1.38.67a2.72,2.72,0,0,1-.5.19,1.62,1.62,0,0,1,.45-.28l1.33-.76c1.15-.67,2.79-1.67,4.78-3a166.91,166.91,0,0,0,14.89-11.08,89.19,89.19,0,0,0,7.52-6.9,43.49,43.49,0,0,0,5.18-6.49,34.71,34.71,0,0,0,2.63-5A20.28,20.28,0,0,1,453.73,124.83Z" style="fill:#263238"></path><path d="M444.42,113.48s-.53.08-1.42.42a9.37,9.37,0,0,0-3.27,2.3c-1.23,1.19-2.42,2.87-4.05,4.51a21.43,21.43,0,0,1-6.1,4.3A22.87,22.87,0,0,1,416.29,127a20.71,20.71,0,0,1-2.29-.48c-.66-.22-1.23-.37-1.68-.56a7.77,7.77,0,0,1-1.36-.63,32.17,32.17,0,0,0,5.39,1.31,23.4,23.4,0,0,0,13-2.06,21.42,21.42,0,0,0,6-4.17c1.61-1.58,2.85-3.25,4.13-4.43a9,9,0,0,1,3.46-2.23,4.89,4.89,0,0,1,1.1-.23Q444.42,113.45,444.42,113.48Z" style="fill:#263238"></path><path d="M430.83,144.49c0-.09,1.7-.85,4.17-2.63a49,49,0,0,0,8.66-8.08,50.68,50.68,0,0,0,6.66-9.81c1.39-2.7,2-4.51,2.06-4.48a5.78,5.78,0,0,1-.35,1.28,14.78,14.78,0,0,1-.54,1.47c-.24.56-.48,1.22-.84,1.9a46,46,0,0,1-6.59,10,44.74,44.74,0,0,1-8.85,8,26.2,26.2,0,0,1-3.14,1.82A7.52,7.52,0,0,1,430.83,144.49Z" style="fill:#263238"></path><path d="M452.07,129.57a2.74,2.74,0,0,1,.59.15,12.59,12.59,0,0,1,1.59.67,14.43,14.43,0,0,1,4.9,4,17,17,0,0,1,1.18,1.77,6.57,6.57,0,0,1,.86,2.17,2.91,2.91,0,0,1-.84,2.39,15.89,15.89,0,0,1-2,1.68c-2.77,2.19-5.75,4.67-8.87,7.29-6.23,5.26-11.86,10-16.06,13.33-2.09,1.67-3.82,3-5,3.85l-1.41,1a3.1,3.1,0,0,1-.51.32,2.75,2.75,0,0,1,.45-.4l1.35-1.07c1.16-.93,2.85-2.27,4.91-4,4.14-3.38,9.72-8.19,16-13.44,3.12-2.63,6.11-5.1,8.9-7.27a17.06,17.06,0,0,0,2-1.62,2.47,2.47,0,0,0,.75-2,6.31,6.31,0,0,0-.79-2,13.89,13.89,0,0,0-1.11-1.73,14.81,14.81,0,0,0-4.7-4.07C452.86,129.86,452.06,129.62,452.07,129.57Z" style="fill:#263238"></path><path d="M481.09,167.06s0-.41,0-1.18,0-1.91,0-3.39c0-3,0-7.38-.05-13,0-11.28-.06-27.58-.1-47.72l.19.19L339.31,102h0l.26-.26c0,23,0,45.06,0,65.31l-.25-.25,101.78.12,29.41.06,7.87,0h2l.7,0h-.67l-2,0-7.81,0-29.36.06-101.94.12h-.25v-.24c0-20.25,0-42.34,0-65.31v-.26h.27l141.78.07h.19v.19c0,20.19-.08,36.53-.1,47.84,0,5.62,0,10-.05,13,0,1.47,0,2.59,0,3.36S481.09,167.06,481.09,167.06Z" style="fill:#263238"></path><path d="M423.33,126.88a2.17,2.17,0,0,1,.2.78c.08.51.2,1.25.26,2.18a11.9,11.9,0,0,1-.19,3.28A7.38,7.38,0,0,1,423,135a2.63,2.63,0,0,1-1.55,1.55,1.38,1.38,0,0,1-1.22-.24,1.32,1.32,0,0,1-.4-1.14c.1-.74.33-1.29.44-1.89a19.77,19.77,0,0,0,.45-3.16c.12-1.83,0-3,.07-3a2.15,2.15,0,0,1,.18.79,14,14,0,0,1,.12,2.19,17.88,17.88,0,0,1-.35,3.25c-.1.6-.34,1.25-.4,1.83a.76.76,0,0,0,.23.7.88.88,0,0,0,.75.14,2.21,2.21,0,0,0,1.23-1.29,7.22,7.22,0,0,0,.63-1.73,12.5,12.5,0,0,0,.29-3.15A27.55,27.55,0,0,1,423.33,126.88Z" style="fill:#263238"></path><path d="M428.64,126.2a10.72,10.72,0,0,1,.36,2.94,25.81,25.81,0,0,1-.07,3.22,7.23,7.23,0,0,1-.35,1.92,2.26,2.26,0,0,1-1.54,1.55,1.41,1.41,0,0,1-1.2-.23,1.28,1.28,0,0,1-.38-1.13c0-.65.08-1.28.11-1.89.09-1.16.16-2.23.23-3.2a16.31,16.31,0,0,1,.34-2.93,16.51,16.51,0,0,1,0,3c0,1-.08,2-.12,3.2,0,.61-.05,1.24-.08,1.89a.79.79,0,0,0,.2.71.92.92,0,0,0,.76.12,1.77,1.77,0,0,0,1.17-1.22,6.85,6.85,0,0,0,.35-1.78c.13-1.19.17-2.27.18-3.18C428.65,127.33,428.56,126.2,428.64,126.2Z" style="fill:#263238"></path><path d="M432.31,123.23a14.09,14.09,0,0,1,1.05,2.82,19.87,19.87,0,0,1,.69,3.2,13.72,13.72,0,0,1,.09,1.95,2.74,2.74,0,0,1-.68,2.09,1.26,1.26,0,0,1-1.2.32,1.63,1.63,0,0,1-.94-.71,4.83,4.83,0,0,1-.49-2c-.14-1.18-.26-2.26-.38-3.23a18,18,0,0,1-.21-3,16.81,16.81,0,0,1,.58,2.94c.15,1,.31,2,.49,3.21a4.42,4.42,0,0,0,.44,1.74.87.87,0,0,0,1.36.28,2.32,2.32,0,0,0,.52-1.72,12.89,12.89,0,0,0-.06-1.88,22.33,22.33,0,0,0-.57-3.16A23.57,23.57,0,0,1,432.31,123.23Z" style="fill:#263238"></path><path d="M451.5,119.56c-.08,0-.15-.61-.5-1.51a7,7,0,0,0-5.59-4.51c-1-.15-1.58-.08-1.59-.17a3.09,3.09,0,0,1,1.63-.19,6.58,6.58,0,0,1,5.9,4.75A2.89,2.89,0,0,1,451.5,119.56Z" style="fill:#263238"></path><path d="M453.71,125a4,4,0,0,1,.26-1.34,8.55,8.55,0,0,0,.31-3.14,3.58,3.58,0,0,0-1.49-2.57,8.5,8.5,0,0,0-1.2-.53c0-.06.57-.2,1.38.21a3.29,3.29,0,0,1,1.16,1,4,4,0,0,1,.66,1.78,7,7,0,0,1-.47,3.32A3.48,3.48,0,0,1,453.71,125Z" style="fill:#263238"></path><path d="M425.14,143a10.52,10.52,0,0,1-2.06,1.44,53.16,53.16,0,0,1-11,5,10.48,10.48,0,0,1-2.43.63,14.57,14.57,0,0,1,2.31-1c1.43-.56,3.41-1.36,5.54-2.34s4-2,5.38-2.68A13.19,13.19,0,0,1,425.14,143Z" style="fill:#263238"></path><path d="M416.29,126.57a4.92,4.92,0,0,1-1.05-.7,20.13,20.13,0,0,1-2.54-2.35,22.17,22.17,0,0,1-3-4.16,17.31,17.31,0,0,1-1.29-2.77,2.83,2.83,0,0,1,0-1.73,1.73,1.73,0,0,1,1.36-1.2,2.64,2.64,0,0,1,1.73.42,6.36,6.36,0,0,1,1.28,1,15.53,15.53,0,0,1,1.92,2.38,23.29,23.29,0,0,1,2.25,4.61c.51,1.37.84,2.5,1.07,3.28a5,5,0,0,1,.28,1.23,6.76,6.76,0,0,1-.48-1.17c-.28-.76-.66-1.87-1.21-3.21a24.57,24.57,0,0,0-2.31-4.47,14.74,14.74,0,0,0-1.88-2.29,5.45,5.45,0,0,0-1.18-1,2.21,2.21,0,0,0-1.38-.36,1.22,1.22,0,0,0-1,.86,2.27,2.27,0,0,0,0,1.41,15.62,15.62,0,0,0,1.21,2.69,23.89,23.89,0,0,0,2.86,4.15C414.86,125.46,416.36,126.49,416.29,126.57Z" style="fill:#263238"></path><path d="M415,123.88a11.07,11.07,0,0,1-1.61-1.81l-1.63-2-.47-.61a1.09,1.09,0,0,1-.22-1,.6.6,0,0,1,.57-.35.94.94,0,0,1,.51.19,8,8,0,0,1,.67.58,13.49,13.49,0,0,1,3.28,4.87,6.54,6.54,0,0,1,.58,2.36c-.09,0-.31-.88-.92-2.22a15.07,15.07,0,0,0-3.3-4.63c-.2-.18-.42-.4-.6-.53s-.31-.12-.32-.06.33.71.6,1.09l1.55,2.11A11.11,11.11,0,0,1,415,123.88Z" style="fill:#263238"></path><path d="M419.55,125.94a1,1,0,0,1,0,.37,4.47,4.47,0,0,1-.21,1,10.93,10.93,0,0,1-1.92,3.3,28.3,28.3,0,0,1-3.88,4.12,29,29,0,0,1-2.66,2c-.48.32-1,.64-1.49,1a4.85,4.85,0,0,1-1.77.69,2.18,2.18,0,0,1-1.89-.6,1.82,1.82,0,0,1-.27-1.91,8,8,0,0,1,2.17-2.63,35,35,0,0,1,4.52-3.4c1.34-.88,2.47-1.53,3.25-2a6.66,6.66,0,0,1,1.24-.63,8,8,0,0,1-1.14.81c-.74.49-1.84,1.19-3.15,2.09a39,39,0,0,0-4.39,3.46,7.69,7.69,0,0,0-2,2.45,1.27,1.27,0,0,0,.18,1.38,1.67,1.67,0,0,0,1.43.44,4.44,4.44,0,0,0,1.58-.63c.5-.3,1-.61,1.47-.93a27.77,27.77,0,0,0,2.63-2,29.94,29.94,0,0,0,3.9-4,12,12,0,0,0,2-3.15C419.48,126.44,419.5,125.94,419.55,125.94Z" style="fill:#263238"></path><path d="M418.59,127a3.45,3.45,0,0,1-.37.89,17.9,17.9,0,0,1-1.34,2.27,22.8,22.8,0,0,1-2.51,3c-.52.52-1.1,1-1.72,1.55-.31.25-.64.5-1,.75a1.74,1.74,0,0,1-1.35.45.93.93,0,0,1-.65-.52,1.34,1.34,0,0,1-.1-.76,2,2,0,0,1,.71-1.15L412,132l3-2.52a24.37,24.37,0,0,1,2.8-2.23,24.59,24.59,0,0,1-2.56,2.5c-.85.78-1.82,1.66-2.88,2.61l-1.7,1.53a1.57,1.57,0,0,0-.55.86c0,.31.1.65.35.7a1.38,1.38,0,0,0,.94-.37c.32-.24.64-.48.95-.73.62-.49,1.18-1,1.7-1.49a24.81,24.81,0,0,0,2.55-2.89C417.9,128.2,418.5,127,418.59,127Z" style="fill:#263238"></path><path d="M432.64,141c.08.12-.42.58-1.1,1s-1.31.69-1.39.57.42-.57,1.11-1S432.56,140.9,432.64,141Z" style="fill:#263238"></path><path d="M438.21,135.32c.11.08-.31.81-1,1.54s-1.45,1.14-1.54,1,.48-.7,1.17-1.4S438.09,135.23,438.21,135.32Z" style="fill:#263238"></path><path d="M444.34,128a5.2,5.2,0,0,1-1.28,2.61,5.09,5.09,0,0,1-2.19,1.9,20.82,20.82,0,0,1,1.78-2.22A19.87,19.87,0,0,1,444.34,128Z" style="fill:#263238"></path><path d="M448.38,122.61c.12.06-.11.89-.69,1.77s-1.27,1.42-1.37,1.32.38-.77.93-1.61S448.24,122.55,448.38,122.61Z" style="fill:#263238"></path><path d="M398.83,165.1c0-.08.86.23,2.25.33a14,14,0,0,0,5.38-.72,31.8,31.8,0,0,0,5-2.26,10.86,10.86,0,0,1,2.08-1,9.33,9.33,0,0,1-1.89,1.32,24.36,24.36,0,0,1-5.05,2.43,12.57,12.57,0,0,1-5.57.6A4.9,4.9,0,0,1,398.83,165.1Z" style="fill:#263238"></path><path d="M460.44,102.74a5.09,5.09,0,0,1,.42,1.12,11.14,11.14,0,0,1,.38,1.35c.12.53.29,1.13.39,1.81a31.81,31.81,0,0,1,.46,4.81,34.52,34.52,0,0,1-.46,5.91,33.93,33.93,0,0,1-1.56,5.72,30.78,30.78,0,0,1-2.05,4.38c-.32.6-.68,1.11-1,1.57a11.49,11.49,0,0,1-.81,1.15,5.14,5.14,0,0,1-.77.91c-.08-.06,1-1.41,2.24-3.81a35.13,35.13,0,0,0,1.92-4.37,36.4,36.4,0,0,0,1.49-5.64,36.89,36.89,0,0,0,.5-5.81,33.89,33.89,0,0,0-.35-4.76C460.87,104.39,460.35,102.77,460.44,102.74Z" style="fill:#263238"></path><path d="M467.3,102a6.28,6.28,0,0,1,.56,1.29,11.18,11.18,0,0,1,.51,1.57,20.07,20.07,0,0,1,.53,2.13,23,23,0,0,1,.4,2.64c.13,1,.14,2,.18,3a31.24,31.24,0,0,1-3.09,13.56,28.85,28.85,0,0,1-1.49,2.67,21.54,21.54,0,0,1-1.5,2.2,19.08,19.08,0,0,1-1.39,1.69,11.13,11.13,0,0,1-1.15,1.19,6.32,6.32,0,0,1-1.06.93c-.08-.08,1.43-1.42,3.31-4,.46-.66,1-1.38,1.43-2.2s.93-1.71,1.41-2.66a35.23,35.23,0,0,0,2.25-6.51,35.62,35.62,0,0,0,.8-6.84c0-1.06,0-2.07-.13-3a23.07,23.07,0,0,0-.34-2.61C468,103.86,467.19,102,467.3,102Z" style="fill:#263238"></path><path d="M461.28,132.51c-.12.08-.69-.54-1.28-1.39s-1-1.6-.85-1.69.69.54,1.28,1.39S461.4,132.42,461.28,132.51Z" style="fill:#263238"></path><path d="M462.24,129.77c-.08.11-1.05-.49-1.92-1.58a4.07,4.07,0,0,1-1.13-2.2c.13-.07.7.85,1.54,1.88S462.34,129.65,462.24,129.77Z" style="fill:#263238"></path><path d="M463.13,128.34a6.18,6.18,0,0,1-2.31-2.1,6.28,6.28,0,0,1-1.45-2.77,19.22,19.22,0,0,1,1.86,2.45A19.54,19.54,0,0,1,463.13,128.34Z" style="fill:#263238"></path><path d="M464,126.35c-.07.12-1.09-.44-2-1.53a4,4,0,0,1-1.09-2.25c.14-.06.66.9,1.5,1.92S464.13,126.23,464,126.35Z" style="fill:#263238"></path><path d="M464.92,124.92a8.11,8.11,0,0,1-1.74-2.29,8.26,8.26,0,0,1-1.31-2.57,15.66,15.66,0,0,1,3.05,4.86Z" style="fill:#263238"></path><path d="M465.53,121.28a9.38,9.38,0,0,1-2-2.28,8.78,8.78,0,0,1-1.59-2.58,8.9,8.9,0,0,1,2,2.27A8.71,8.71,0,0,1,465.53,121.28Z" style="fill:#263238"></path><path d="M465.9,117.32c-.12.08-1-.81-1.91-2A7.73,7.73,0,0,1,462.5,113c.12-.09,1,.81,1.91,2A7.6,7.6,0,0,1,465.9,117.32Z" style="fill:#263238"></path><path d="M466.35,114.68a9,9,0,0,1-2-2.37,9.21,9.21,0,0,1-1.58-2.67,9.43,9.43,0,0,1,2,2.37A9.64,9.64,0,0,1,466.35,114.68Z" style="fill:#263238"></path><path d="M466.23,110.15c-.12.07-.71-.67-1.31-1.66s-1-1.86-.85-1.93.7.67,1.3,1.66S466.35,110.08,466.23,110.15Z" style="fill:#263238"></path><path d="M467.84,108.18c-.15,0-.5-1.44-1.51-3s-2.21-2.45-2.12-2.58a6.72,6.72,0,0,1,3.63,5.55Z" style="fill:#263238"></path><path d="M388.06,99.49a8.4,8.4,0,0,1,.69,1.29l1.76,3.58a39.59,39.59,0,0,0,7.35,10.71,20.46,20.46,0,0,0,5.85,4.06c2,.86,4,1.62,5.11,3a4,4,0,0,1,.65,3.91,2.21,2.21,0,0,1-.67.88c-.21.15-.32.21-.33.19a3.07,3.07,0,0,0,.81-1.15,3.86,3.86,0,0,0-.75-3.6,6.78,6.78,0,0,0-2.13-1.57c-.87-.45-1.86-.81-2.89-1.26a20.27,20.27,0,0,1-6-4.11,37.13,37.13,0,0,1-7.33-10.93c-.71-1.53-1.24-2.78-1.6-3.66A8.36,8.36,0,0,1,388.06,99.49Z" style="fill:#263238"></path><path d="M370.2,140.57a8.36,8.36,0,0,1-1.12-1c-.7-.69-1.68-1.72-2.86-3a134.27,134.27,0,0,1-8.7-10.61,134.81,134.81,0,0,1-7.59-11.43c-.89-1.52-1.59-2.76-2-3.63a8.44,8.44,0,0,1-.67-1.37,8.7,8.7,0,0,1,.84,1.27l2.18,3.54c1.86,3,4.52,7,7.7,11.31s6.26,8,8.55,10.68l2.74,3.12A8.76,8.76,0,0,1,370.2,140.57Z" style="fill:#263238"></path><path d="M456.88,133.88a2.09,2.09,0,0,1-.17.48c-.13.3-.34.75-.64,1.3a26,26,0,0,1-3,4.36,111.16,111.16,0,0,1-12.57,12.19,125.4,125.4,0,0,1-14.17,10.27c-1.91,1.18-3.48,2.08-4.58,2.68l-1.27.68a1.72,1.72,0,0,1-.46.2,2.21,2.21,0,0,1,.41-.29l1.22-.76c1.07-.66,2.61-1.61,4.48-2.82a147.36,147.36,0,0,0,14-10.36,127.87,127.87,0,0,0,12.62-12,31.07,31.07,0,0,0,3.15-4.22C456.54,134.49,456.84,133.86,456.88,133.88Z" style="fill:#263238"></path><path d="M341.36,104.27c0,.61.61,59.29.61,59.29l50.49,2.12,1.66-4.23-8.2-9.15-.21-4.9a18.2,18.2,0,0,1-12.06-1.55c-6.13-3.16-12.46-9.25-12.46-9.25Z" style="fill:#ebebeb"></path><path d="M438.43,164.77c.64-.61,27.77-20.8,27.8-24.2a43.51,43.51,0,0,0-.7-7.17s8.69-21.37,5.83-29.13h6.54l.82,60.5Z" style="fill:#ebebeb"></path><path d="M431.15,121.12l1.53-19c-1.24,2.05-3.82,5.5-5.06,7.55-10.86-14.4-12.68-18.05-21.52-30.36l-12,2.89,27.61,32.19-7.4,4.81Z" style="fill:#e0e0e0"></path><path d="M431.15,121.12l-.27,0L430,121l-3.29-.34-12.43-1.34-.46,0,.38-.26,7.38-4.84,0,.3L393.92,82.35l-.27-.32.41-.1,4.64-1.12L406,79l.16,0,.11.14c4.1,5.69,7.83,11.27,11.37,16.42s7,9.81,10.1,14l-.34,0c1.78-2.82,3.64-5.2,5.09-7.53l.39-.62-.07.72c-.51,6-.93,10.71-1.22,14-.15,1.6-.26,2.85-.34,3.73,0,.4-.07.71-.1,1a1.3,1.3,0,0,1,0,.31s0-.12,0-.35,0-.57.06-1c.06-.89.15-2.15.26-3.77.24-3.29.59-8,1-13.92l.32.1c-1.44,2.37-3.29,4.77-5,7.56l-.16.26-.18-.24c-3.13-4.14-6.59-8.8-10.16-13.94s-7.3-10.71-11.4-16.39l.27.1-7.34,1.78-4.64,1.12.14-.43,27.56,32.23.15.17-.19.13-7.41,4.78-.08-.3,12.32,1.51L430,121l.87.12A2.09,2.09,0,0,1,431.15,121.12Z" style="fill:#263238"></path><path d="M479.78,174.1c0,.15-31.32.26-69.94.26s-69.95-.11-69.95-.26,31.31-.26,69.95-.26S479.78,174,479.78,174.1Z" style="fill:#263238"></path><path d="M408.27,180.43c0,.14-15.4.26-34.38.26s-34.39-.12-34.39-.26,15.39-.26,34.39-.26S408.27,180.28,408.27,180.43Z" style="fill:#263238"></path><path d="M479.78,180.43c0,.14-14,.26-31.31.26s-31.33-.12-31.33-.26,14-.26,31.33-.26S479.78,180.28,479.78,180.43Z" style="fill:#263238"></path><path d="M406.31,187.24c0,.15-15,.26-33.4.26s-33.41-.11-33.41-.26,14.95-.26,33.41-.26S406.31,187.1,406.31,187.24Z" style="fill:#263238"></path><path d="M654.13,174.1c0,.15-31.32.26-69.94.26s-70-.11-70-.26,31.31-.26,70-.26S654.13,174,654.13,174.1Z" style="fill:#263238"></path><path d="M582.62,180.43c0,.14-15.4.26-34.39.26s-34.39-.12-34.39-.26,15.4-.26,34.39-.26S582.62,180.28,582.62,180.43Z" style="fill:#263238"></path><path d="M654.13,180.43c0,.14-14,.26-31.32.26s-31.32-.12-31.32-.26,14-.26,31.32-.26S654.13,180.28,654.13,180.43Z" style="fill:#263238"></path><path d="M580.66,187.24c0,.15-15,.26-33.41.26s-33.41-.11-33.41-.26,15-.26,33.41-.26S580.66,187.1,580.66,187.24Z" style="fill:#263238"></path><path d="M348.67,89.82v5.94h-.62v-5.4h-1.4v-.54Z" style="fill:#263238"></path><path d="M357.16,83.45a1.64,1.64,0,0,1,0,.31q0,.39,0,1c0,.91,0,2.15.06,3.7,0,3.28.07,7.86.11,13.33V102h-.23l-17.86,0-.26-.26h0V96.81c0-1.61,0-3.19,0-4.73,0-3.07,0-6,0-8.63v-.22h.22l13,.11,3.6.06.93,0a1.64,1.64,0,0,1,.31,0l-.36,0-1,0-3.65.06-12.88.12.22-.23c0,2.66,0,5.56,0,8.63,0,1.54,0,3.12,0,4.73v4.93h0c.23.23-.32-.31-.26-.26l17.86,0-.23.22c.05-5.41.09-9.94.12-13.19,0-1.57,0-2.82.06-3.74,0-.41,0-.74,0-1A1.89,1.89,0,0,1,357.16,83.45Z" style="fill:#263238"></path><path d="M351,205.92c0,1-.72,1.75-2.16,1.75a3.09,3.09,0,0,1-2.14-.76l.3-.48a2.59,2.59,0,0,0,1.84.68c1,0,1.53-.45,1.53-1.19s-.5-1.18-1.6-1.18h-.43v-.45l1.65-2.06h-3v-.55h3.82v.44L349,204.23C350.31,204.3,351,205,351,205.92Z" style="fill:#263238"></path><path d="M357.16,195.32a1.64,1.64,0,0,1,0,.31c0,.26,0,.57,0,1q0,1.36.06,3.69c0,3.28.07,7.86.11,13.34v.22h-.23l-17.86,0-.26-.27h0v-4.92c0-1.62,0-3.2,0-4.74,0-3.07,0-6,0-8.62v-.23h.22l13,.12,3.6.06.93,0a1.11,1.11,0,0,1,.31,0l-.36,0-1,0-3.65.06-12.88.11.22-.22c0,2.66,0,5.55,0,8.62,0,1.54,0,3.12,0,4.74v4.92h0c.23.24-.32-.31-.26-.25l17.86,0-.23.23c.05-5.42.09-10,.12-13.19,0-1.57,0-2.83.06-3.75,0-.4,0-.73,0-1A1.89,1.89,0,0,1,357.16,195.32Z" style="fill:#263238"></path><path d="M522.27,206.06h-1.19v1.56h-.61v-1.56h-3.35v-.44l3.15-3.94h.67l-3,3.84h2.57v-1.38h.6v1.38h1.19Z" style="fill:#263238"></path><path d="M528.63,195.32s0,.1,0,.31,0,.57,0,1q0,1.36.06,3.69c0,3.28.06,7.86.11,13.34v.22h-.22l-17.86,0-.26-.27h0v-4.92c0-1.62,0-3.2,0-4.74,0-3.07,0-6,0-8.62v-.23h.23l13,.12,3.6.06.93,0a1.2,1.2,0,0,1,.31,0l-.36,0-1,0-3.65.06-12.88.11.22-.22c0,2.66,0,5.55,0,8.62,0,1.54,0,3.12,0,4.74v4.92h0c.23.24-.32-.31-.26-.25l17.86,0-.23.23c.05-5.42.09-10,.11-13.19,0-1.57,0-2.83.06-3.75,0-.4,0-.73,0-1A1.89,1.89,0,0,1,528.63,195.32Z" style="fill:#263238"></path><path d="M525.37,94.55v.55H521.2v-.44l2.47-2.41c.67-.66.8-1.06.8-1.47,0-.69-.48-1.11-1.39-1.11a2,2,0,0,0-1.62.66L521,90a2.62,2.62,0,0,1,2.1-.85c1.2,0,2,.61,2,1.6a2.44,2.44,0,0,1-1,1.86l-2,2Z" style="fill:#263238"></path><path d="M531.45,82.79a1.11,1.11,0,0,1,0,.31c0,.26,0,.58,0,1,0,.91,0,2.15.06,3.7,0,3.28.07,7.86.12,13.33v.23h-.23l-17.85,0c0,.06-.5-.49-.27-.26h0V91.42c0-3.07,0-6,0-8.63v-.22h.22l13,.11,3.6.06.94,0a1.45,1.45,0,0,1,.3,0l-.35,0-1,0-3.65.06L513.59,83l.23-.23c0,2.66,0,5.56,0,8.63,0,1.53,0,3.11,0,4.73v4.92h0c.24.23-.31-.31-.25-.26l17.85,0-.23.22c0-5.41.09-9.94.12-13.19,0-1.57,0-2.82.06-3.74,0-.41,0-.74,0-1A1.55,1.55,0,0,1,531.45,82.79Z" style="fill:#263238"></path><path d="M584.35,96.84c-.13-.07,2.1-4.74,5-10.44s5.32-10.28,5.44-10.21-2.1,4.74-5,10.44S584.48,96.9,584.35,96.84Z" style="fill:#4071FF"></path><path d="M591.21,93.56a9.63,9.63,0,0,1-2,1.17c-1.23.66-2.94,1.54-4.85,2.49a.57.57,0,0,1-.66-.06.75.75,0,0,1-.21-.53v-.78c0-.5,0-1,0-1.45,0-.87,0-1.69.05-2.45a10,10,0,0,1,.17-2.26A10.17,10.17,0,0,1,584,92c0,.76,0,1.58.06,2.45,0,.47,0,.95,0,1.45,0,.24,0,.49,0,.74a.59.59,0,0,0,.05.19s0,0,0,0l.09,0c1.91-.93,3.65-1.77,4.92-2.34A9.79,9.79,0,0,1,591.21,93.56Z" style="fill:#4071FF"></path><path d="M630.46,77.42c0,.14-6.22.26-13.88.26s-13.88-.12-13.88-.26,6.21-.26,13.88-.26S630.46,77.27,630.46,77.42Z" style="fill:#4071FF"></path><path d="M631.27,81.2c0,.15-6.39.26-14.28.26s-14.28-.11-14.28-.26,6.4-.26,14.28-.26S631.27,81.06,631.27,81.2Z" style="fill:#4071FF"></path><path d="M631.27,85.9c0,.15-6.39.26-14.28.26s-14.28-.11-14.28-.26,6.4-.26,14.28-.26S631.27,85.76,631.27,85.9Z" style="fill:#4071FF"></path><path d="M382.62,69.53c0,.15-9.26.26-20.68.26s-20.69-.11-20.69-.26,9.26-.26,20.69-.26S382.62,69.39,382.62,69.53Z" style="fill:#263238"></path><path d="M475.72,199c0,.15-6.25.57-14,1s-14,.58-14,.43,6.25-.57,14-1S475.71,198.81,475.72,199Z" style="fill:#4071FF"></path><path d="M463.61,203.3a28.27,28.27,0,0,1-5.46.7,27.9,27.9,0,0,1-5.5.18,30.45,30.45,0,0,1,5.46-.7A29.87,29.87,0,0,1,463.61,203.3Z" style="fill:#4071FF"></path><path d="M504.66,209.54c-.07.07-1-1.12-2.93-2.6a20.43,20.43,0,0,0-17.81-3.68c-2.34.6-3.68,1.31-3.73,1.22a4.35,4.35,0,0,1,.92-.53,16.94,16.94,0,0,1,2.72-1A19.61,19.61,0,0,1,502,206.65a17.49,17.49,0,0,1,2.07,2A3.38,3.38,0,0,1,504.66,209.54Z" style="fill:#4071FF"></path><path d="M504.41,203.87a9.42,9.42,0,0,1,.79,2.12l.73,2.33a6.37,6.37,0,0,1,.34,1.47,1.11,1.11,0,0,1-.35.88,1.24,1.24,0,0,1-.92.29,7.24,7.24,0,0,1-1.56-.4l-1.37-.43-2.33-.77a10.26,10.26,0,0,1-2.1-.84,9.55,9.55,0,0,1,2.21.48l2.36.67,1.38.41a8,8,0,0,0,1.44.36.6.6,0,0,0,.73-.65,6.12,6.12,0,0,0-.29-1.33c-.22-.84-.43-1.63-.62-2.37A9.43,9.43,0,0,1,504.41,203.87Z" style="fill:#4071FF"></path><path d="M448.9,208.85s-.25,0-.67-.07a6.91,6.91,0,0,1-1.72-.65,8.24,8.24,0,0,1-3.82-10.47,7.34,7.34,0,0,1,.89-1.6c.27-.34.44-.5.47-.48a23.86,23.86,0,0,0-1,2.21,8.35,8.35,0,0,0,3.66,10C448,208.58,448.92,208.76,448.9,208.85Z" style="fill:#4071FF"></path><path d="M480.57,207.15c-.09,0,.18-.88.26-2.3a11.48,11.48,0,0,0-.13-2.48,12.8,12.8,0,0,0-.83-2.92,13.74,13.74,0,0,0-1.51-2.63,12.17,12.17,0,0,0-1.69-1.82c-1.08-.94-1.88-1.34-1.84-1.42s.23,0,.6.21a8,8,0,0,1,1.47.92,11.09,11.09,0,0,1,1.84,1.81,12.37,12.37,0,0,1,1.61,2.72,13,13,0,0,1,.83,3.06,10.65,10.65,0,0,1,0,2.58,7.35,7.35,0,0,1-.37,1.69C480.7,207,480.61,207.16,480.57,207.15Z" style="fill:#4071FF"></path><path d="M594.25,203.62c0,.14-9.11.26-20.33.26s-20.33-.12-20.33-.26,9.1-.26,20.33-.26S594.25,203.47,594.25,203.62Z" style="fill:#4071FF"></path><path d="M597.71,207.94c0,.15-9.11.26-20.33.26s-20.33-.11-20.33-.26,9.1-.26,20.33-.26S597.71,207.8,597.71,207.94Z" style="fill:#4071FF"></path><path d="M544.57,207.1a8.9,8.9,0,0,1-1-2.82,8.51,8.51,0,0,1-.5-2.94,16.87,16.87,0,0,1,1.49,5.76Z" style="fill:#4071FF"></path><path d="M547.82,202.75a15.65,15.65,0,0,1-3.66,1.69,16.35,16.35,0,0,1-3.84,1.2A15.4,15.4,0,0,1,544,204,15.8,15.8,0,0,1,547.82,202.75Z" style="fill:#4071FF"></path><path d="M541.25,207.71a21.84,21.84,0,0,1,4.33-5.19,11.16,11.16,0,0,1-2,2.76A11.29,11.29,0,0,1,541.25,207.71Z" style="fill:#4071FF"></path><path d="M549,207.67a25.57,25.57,0,0,1-4.45-2.39,24,24,0,0,1-4.18-2.83,25.57,25.57,0,0,1,4.45,2.39A24,24,0,0,1,549,207.67Z" style="fill:#4071FF"></path><path d="M423.23,69.36c0,.14-7.18.26-16,.26s-16-.12-16-.26,7.18-.26,16-.26S423.23,69.21,423.23,69.36Z" style="fill:#263238"></path><g style="opacity:0.1"><path d="M500.51,81.27a10.35,10.35,0,0,0-1.27-12.22l-11.94-3.5c-2.81,2.67-5.2,6.12-5.36,10a10,10,0,0,0,18.57,5.73Z"></path></g><circle cx="494.19" cy="71.99" r="10.36" transform="translate(338.07 546.37) rotate(-80.07)" style="fill:#4071FF"></circle><path d="M488.31,56.43A6.22,6.22,0,1,0,497,57.94,6.22,6.22,0,0,0,488.31,56.43Z" style="fill:#4071FF"></path><path d="M486.51,64.4A11.28,11.28,0,0,0,488,66.25a6,6,0,0,0,5.19,1.43,6.43,6.43,0,0,0,4.19-3.43A11.67,11.67,0,0,0,498,62s.08.23.06.66a5.15,5.15,0,0,1-.41,1.75,6.44,6.44,0,0,1-4.41,3.79,6,6,0,0,1-5.55-1.68,5,5,0,0,1-1-1.48A1.63,1.63,0,0,1,486.51,64.4Z" style="fill:#263238"></path><path d="M497.66,63.55a9,9,0,0,0,1.77,3.19,8.94,8.94,0,0,0,3.19,1.77c0,.07-.44.12-1.14,0a5.09,5.09,0,0,1-2.42-1.36,5.19,5.19,0,0,1-1.36-2.41C497.54,64,497.6,63.56,497.66,63.55Z" style="fill:#263238"></path><path d="M485.17,73.28c-.05-.07.34-.4.83-1a6.64,6.64,0,0,0,1.18-5.91,7.5,7.5,0,0,1-.37-1.28c.05,0,.41.37.72,1.17a6,6,0,0,1-1.25,6.26C485.69,73.09,485.21,73.33,485.17,73.28Z" style="fill:#263238"></path></g><g id="freepik--Character--inject-45"><polygon points="80.7 416.51 169.67 455.32 362.53 444.11 278.69 408.05 80.7 416.51" style="fill:#fff"></polygon><path d="M80.7,416.52l198-8.71h.06l.05,0,83.85,36,1,.44-1.1.06-.39,0L169.68,455.51h0l0,0-88.89-39,89.05,38.62-.09,0,192.47-11.25.39,0-.09.5L278.6,408.28l.1,0Z" style="fill:#263238"></path><path d="M148.29,438.29l47.06-2.22h.05l0,0L221.14,446l1.13.43-1.21.07-.25,0-48.92,2.7h0l0,0-23.51-10.88L172,448.81h-.09L220.78,446l.25,0-.08.51-25.68-9.92h.1Z" style="fill:#263238"></path><path d="M202.11,435.66l49.95-3h.05l0,0,28,10.76h0l1.16.44-1.24.06-52.25,2.29h-.09l-25.63-10.56,25.78,10.19h-.08l52.24-2.42-.08.5h0l-28-10.8h.1Z" style="fill:#263238"></path><path d="M261.69,432.51l49.95-3h.1l28,10.77h0l1.17.44-1.25.06-52.25,2.29h-.08l-25.63-10.56,25.78,10.19h-.08l52.24-2.42-.08.5h0l-28-10.8h.1Z" style="fill:#263238"></path><path d="M112.1,423.34l47.06-2.22h.05l0,0L185,431l1.13.43-1.21.07-.25,0-48.93,2.7h-.05l0,0-23.5-10.88,23.66,10.52-.09,0L184.59,431l.25,0-.08.5-25.68-9.91h.1Z" style="fill:#263238"></path><path d="M165.92,420.71l50-3h0l.05,0,28,10.77h0l1.16.45-1.24.06-52.25,2.29h-.08l-25.63-10.56L191.7,430.9h-.09l52.25-2.42-.09.5h0l-28-10.81.1,0Z" style="fill:#263238"></path><path d="M225.5,417.56l49.94-3h.05l.05,0,28,10.77h0l1.16.45-1.24.06-52.25,2.29h-.08L225.5,417.56l25.77,10.19h-.08l52.24-2.42-.08.5h0l-28-10.8.1,0Z" style="fill:#263238"></path><polygon points="172.94 445.38 172.03 438.43 361 427.64 361 434.59 172.94 445.38" style="fill:#e0e0e0"></polygon><polygon points="117.14 415.31 172.03 438.43 360.03 427.5 310.14 407.07 117.14 415.31" style="fill:#fff"></polygon><path d="M117.14,415.31l193-8.5h.06l.05,0,49.89,20.43,1.06.44-1.14.06-.38,0L172,438.6h0l0,0-54.83-23.27c1.18.5,20.49,8.57,55,23H172l187.62-11,.38,0-.09.5L310.05,407.3l.1,0Z" style="fill:#263238"></path><polygon points="117.14 421.05 172.94 445.38 172.03 438.43 139.76 424.85 117.14 415.31 117.14 421.05" style="fill:#e0e0e0"></polygon><path d="M151.2,421.83l45.87-2.17h.05l0,0,25.05,9.63,1.13.44-1.21.06-.24,0-47.69,2.63h0l-.05,0-22.9-10.61,23.07,10.25h-.1l47.69-2.76.24,0-.08.51-25-9.67.1,0Z" style="fill:#263238"></path><path d="M203.66,419.27l48.68-2.94h.06l0,0,27.27,10.5h0l1.16.45-1.25,0-50.93,2.24h0l0,0-25-10.29,25.13,9.93h-.08l50.92-2.37-.08.51h0l-27.27-10.53.1,0Z" style="fill:#263238"></path><path d="M261.73,416.2l48.69-2.94h.05l0,0,27.28,10.5h0l1.16.45-1.24,0-50.93,2.24h-.05l0,0-25-10.29,25.13,9.93-.08,0,50.92-2.36-.08.51h0l-27.26-10.53.1,0Z" style="fill:#263238"></path><path d="M318.9,420a9.91,9.91,0,0,1-1.55.16l-4.22.28c-3.56.23-8.48.55-13.92,1s-10.34.87-13.9,1.19l-4.21.38a10.54,10.54,0,0,1-1.55.08,7.6,7.6,0,0,1,1.53-.28c1-.15,2.42-.33,4.19-.54,3.55-.42,8.47-.93,13.9-1.35s10.37-.69,13.94-.82c1.79-.07,3.24-.11,4.24-.12A8.13,8.13,0,0,1,318.9,420Z" style="fill:#263238"></path><path d="M314.07,423.16a7.6,7.6,0,0,1-1.67-.43,12.89,12.89,0,0,0-4-.57,7,7,0,0,0-3.76,1.28c-.83.61-1.18,1.19-1.25,1.14s.19-.69,1-1.43a6.57,6.57,0,0,1,4-1.51,10.54,10.54,0,0,1,4.16.74A4.73,4.73,0,0,1,314.07,423.16Z" style="fill:#263238"></path><path d="M300.72,413.72a2.85,2.85,0,0,1-.1,1.49,8,8,0,0,1-1.6,3.23,8.11,8.11,0,0,1-2.82,2.24,2.94,2.94,0,0,1-1.44.41,10.47,10.47,0,0,0,6-7.37Z" style="fill:#263238"></path><path d="M173.3,445.76a9.7,9.7,0,0,1-.9-3.52,10,10,0,0,1-.09-3.63,61.46,61.46,0,0,1,1,7.15Z" style="fill:#263238"></path><path d="M117.14,417.41s.36.13,1,.42l3,1.3,11.25,5,40.14,18-.09,0c9.26-.08,19.4-.63,30.15-1.13s22.12-1.17,33.87-1.86c34.4-2,65.53-4,88.07-5.43L351.21,432l7.26-.44,1.89-.1.64,0s-.22,0-.64.07l-1.89.16-7.24.54-26.68,1.85c-22.53,1.52-53.65,3.58-88.06,5.58-11.75.69-23.12,1.3-33.88,1.84s-20.88,1-30.17,1.07h-.05l0,0-40.07-18.16-11.2-5.11-2.94-1.37Z" style="fill:#263238"></path><polygon points="268.35 413.34 263.98 411.06 266.12 409.13 268.35 413.34" style="fill:#263238"></polygon><polygon points="258.05 408.32 263.17 403.77 266.17 409.31 263.98 411.06 258.05 408.32" style="fill:#fff"></polygon><polygon points="171.99 253.51 201.16 243.79 217.4 230.06 220.92 235.62 234.55 232.5 273.12 242.52 279.35 253.52 312.27 262.53 312.42 308.71 306.44 393.2 307.32 406.63 149.78 406.63 147.18 350.51 147.06 315.6 171.99 253.51" style="fill:#4071FF"></polygon><path d="M255.3,382.54l34-1.64s6.6,3.76,8.31,14.54,0,10.79,0,10.79L280.49,412l-36.33-.84L231,394.62l9.93-5.86Z" style="fill:#ffbf9d"></path><path d="M137.66,370.1s32.62-51.44,27.13-44c-.68.91,3.31-2.95,8.45-15.57,4.94-12.11,17.8-63,17.8-63l-29.39,7.8c-7.73,2.05-14,2.72-20.68,7.14-5.8,3.85-11.85,11.42-15.79,17.16-14.67,21.4-41.53,63.08-44.92,68.41-4.85,7.61-13.8,28.77-14.54,38.95s2.07,19.29,17.65,27.43c14.38,7.5,106.25,2.27,106.25,2.27l-.5-38.19Z" style="fill:#4071FF"></path><path d="M403.32,360.3c-1.35-3.36-52.72-60.16-78.51-86.45a108.08,108.08,0,0,0-12.54-11.32l-8.49,55.37s2.92,12.76,4.7,22.21c.38,2,27.06,20.19,27.06,20.19l5.71,3.66L289.1,377.74l2.18,33.13,93.36-2.45C396.77,403.78,416.07,392.08,403.32,360.3Z" style="fill:#4071FF"></path><path d="M384.64,408.42s-.15,0-.47,0l-1.38.06-5.35.19-19.8.6-66.35,1.83H291l0-.25c-.2-3.1-.42-6.39-.64-9.72-.53-8.09-1-16-1.53-23.41v-.22l.21-.05c5.59-1.15,10.93-2.59,16.05-4l14.63-4.06c9.27-2.57,17.53-4.74,24.48-6.24a125.54,125.54,0,0,1,16.46-2.68c1.95-.21,3.46-.21,4.47-.23h1.55l-.39,0-1.15.06c-1,.05-2.52.07-4.46.31a135.64,135.64,0,0,0-16.41,2.82c-6.93,1.55-15.17,3.76-24.43,6.36L305.22,374c-5.11,1.4-10.46,2.85-16.07,4l.21-.27c.49,7.46,1,15.33,1.54,23.41.22,3.33.44,6.63.64,9.73l-.27-.25L357.63,409l19.8-.44,5.35-.09,1.39,0A4.24,4.24,0,0,1,384.64,408.42Z" style="fill:#263238"></path><path d="M262.05,396.31a3,3,0,0,0-.91-1.12l-5.53-4.92-3.2,9.54a6.45,6.45,0,0,0,9.06-1.23A2.48,2.48,0,0,0,262.05,396.31Z" style="fill:#ff9a6c"></path><path d="M187.83,343.08l70.22,65.24,6.63,3.15,3.67,1.87-1.71-3.16-3.47-6.41-71.1-65.29a3.12,3.12,0,0,0-4.25,0h0A3.14,3.14,0,0,0,187.83,343.08Z" style="fill:#455a64"></path><path d="M189.14,379.76l5.5,1s28.53-10.53,32.6-11.06c3.15-.41,18.15,3.11,24.81,4.74a5.83,5.83,0,0,1,4.52,5.82.62.62,0,0,0,0,.13,5.85,5.85,0,0,1-3.67,5h0s5.6,1.74,3.06,7.66c-1.87,4.38-7.79,3.7-7.79,3.7l-9.86.19s2.51.76,6.31,1.65c4.06.95,5.15,1.69,5.15,1.69s6,5.72.21,8.11a12.14,12.14,0,0,1-6,1.06s1.72,6.16-2.89,7.22-35-1.25-35-1.25-1.61-.91-7.81-1.44l-8.59-.6Z" style="fill:#ffbf9d"></path><path d="M189.14,379.76s0,.21,0,.6,0,1,0,1.75c0,1.54.09,3.78.15,6.67.11,5.79.26,14.16.46,24.56l-.17-.18,7.88.53c1.38.09,2.8.24,4.24.45a18.27,18.27,0,0,1,4.37,1.05l-.09,0c6.36.46,13.27.91,20.61,1.24,3.66.15,7.44.3,11.3.23a20.81,20.81,0,0,0,2.86-.22,3.67,3.67,0,0,0,2.33-1.37,4.75,4.75,0,0,0,.85-2.65,9.83,9.83,0,0,0-.29-2.91l-.09-.36.38,0a11.07,11.07,0,0,0,3.81-.36,8.83,8.83,0,0,0,3.52-1.59,2.92,2.92,0,0,0,.55-3.48,10.52,10.52,0,0,0-2.29-3.31l0,0a22.53,22.53,0,0,0-4.74-1.57l-6.66-1.73-1.82-.47,1.89,0,9.87-.18h0a10.29,10.29,0,0,0,4-.45,5.78,5.78,0,0,0,3.1-2.28,7.66,7.66,0,0,0,.46-.85l.33-.92c.1-.31.15-.63.22-.95s.06-.64.08-.95a4.5,4.5,0,0,0-1.56-3.31,6.09,6.09,0,0,0-1.6-1l-.21-.09-.11,0,0,0c0,.41-.05-.57,0-.48h0c.14-.07.28-.12.42-.2a4.54,4.54,0,0,0,.79-.49,5.56,5.56,0,0,0,2.09-3,5.34,5.34,0,0,0-.24-3.55,5.73,5.73,0,0,0-2.34-2.62,12.4,12.4,0,0,0-3.4-1.08l-3.48-.83q-3.45-.81-6.75-1.53c-2.2-.47-4.35-.91-6.45-1.29-1.05-.18-2.09-.35-3.12-.49a15.52,15.52,0,0,0-3-.19,47.29,47.29,0,0,0-5.62,1.54q-2.7.85-5.19,1.71l-9.12,3.15-12.74,4.54h0L190.5,380l-1-.2-.34-.07.31,0,1,.16,4.19.7h0c2.92-1.09,7.22-2.69,12.71-4.66,2.74-1,5.78-2.07,9.1-3.21,1.66-.57,3.39-1.16,5.19-1.73a43.92,43.92,0,0,1,5.68-1.58,15.38,15.38,0,0,1,3.11.18c1,.13,2.08.3,3.14.48,2.11.37,4.27.81,6.47,1.28s4.46,1,6.76,1.5l3.49.82,1.76.43a6.74,6.74,0,0,1,1.77.7,6.16,6.16,0,0,1,2.54,2.84,5.84,5.84,0,0,1,.27,3.87,6.06,6.06,0,0,1-2.26,3.23,5.85,5.85,0,0,1-.86.53,4.81,4.81,0,0,1-.46.22h0c0,.11,0-.87,0-.45l.07,0,.12.05.23.09a6.92,6.92,0,0,1,1.73,1.09,5.58,5.58,0,0,1,1.25,1.64,5,5,0,0,1,.48,2,9.1,9.1,0,0,1-.08,1c-.07.34-.13.68-.23,1l-.35,1a10.36,10.36,0,0,1-.5.93,6.36,6.36,0,0,1-3.37,2.48,10.6,10.6,0,0,1-4.2.48h0l-9.87.19.07-.51,6.63,1.72a22,22,0,0,1,4.91,1.65h0l0,0a10.88,10.88,0,0,1,2.4,3.49,4.07,4.07,0,0,1,.34,2.13,3,3,0,0,1-1,1.92,9.2,9.2,0,0,1-3.76,1.71,11.55,11.55,0,0,1-4,.37l.28-.32a10.25,10.25,0,0,1,.31,3.07,5.28,5.28,0,0,1-1,2.93,4.16,4.16,0,0,1-2.63,1.55,21.17,21.17,0,0,1-2.95.23c-3.88.07-7.66-.09-11.33-.25-7.35-.34-14.26-.81-20.62-1.29h0l-.06,0a18.42,18.42,0,0,0-4.22-1c-1.43-.21-2.83-.36-4.21-.46l-7.88-.56-.17,0v-.16c-.11-10.46-.19-18.87-.25-24.69,0-2.87,0-5.1-.06-6.63v-1.71C189.13,379.94,189.14,379.76,189.14,379.76Z" style="fill:#ff9a6c"></path><path d="M252.41,385.35a61.47,61.47,0,0,1-7.83-.46,58.33,58.33,0,0,1-7.78-1,59.27,59.27,0,0,1,7.83.46A58.33,58.33,0,0,1,252.41,385.35Z" style="fill:#ff9a6c"></path><path d="M221.62,413.34c0,.06-.45-.1-.94-.6a3.83,3.83,0,0,1-.18-5.05c.45-.54.85-.72.89-.67s-.26.34-.59.89a4,4,0,0,0,.17,4.59C221.34,413,221.66,413.28,221.62,413.34Z" style="fill:#ff9a6c"></path><path d="M221.16,403c0,.06-.53,0-1.21-.44a3.7,3.7,0,0,1-.62-5.63c.57-.6,1.07-.75,1.09-.69s-.37.33-.81.92a4,4,0,0,0-.76,2.67,3.93,3.93,0,0,0,1.32,2.44C220.73,402.77,221.19,402.94,221.16,403Z" style="fill:#ff9a6c"></path><path d="M221,391s-.53-.24-1-1a4.69,4.69,0,0,1,1.1-6.32c.72-.53,1.28-.64,1.3-.58s-.46.3-1.06.87a4.8,4.8,0,0,0-1,5.85C220.65,390.56,221,390.94,221,391Z" style="fill:#ff9a6c"></path><path d="M224.6,375.57s-.27-.12-.46-.52A2.56,2.56,0,0,1,225,372c.37-.24.65-.26.67-.2s-.84.6-1.14,1.73A5.14,5.14,0,0,0,224.6,375.57Z" style="fill:#ff9a6c"></path><path d="M239.07,396.71a17.17,17.17,0,0,1-4.26.19,18.12,18.12,0,0,1-4.24-.34,17.43,17.43,0,0,1,4.25-.18A18,18,0,0,1,239.07,396.71Z" style="fill:#ff9a6c"></path><path d="M243.69,409.41A58.4,58.4,0,0,1,236,408a59.56,59.56,0,0,1-7.59-1.88,58.4,58.4,0,0,1,7.7,1.37A59.56,59.56,0,0,1,243.69,409.41Z" style="fill:#ff9a6c"></path><path d="M167.8,316.76a2.93,2.93,0,0,1,.17-.65c.12-.42.37-1,.57-1.83a48.09,48.09,0,0,0,1.41-6.91,60.2,60.2,0,0,0,.45-10.43,49.07,49.07,0,0,0-2.16-12.56,34.76,34.76,0,0,0-6.1-11.12,31.62,31.62,0,0,0-7.8-6.85,33.44,33.44,0,0,0-6.34-3c-.78-.31-1.41-.46-1.82-.61a2.81,2.81,0,0,1-.63-.24,3,3,0,0,1,.66.14c.42.12,1.06.24,1.85.52a30.72,30.72,0,0,1,6.47,2.91,31.3,31.3,0,0,1,8,6.85,34.86,34.86,0,0,1,6.22,11.27,48.07,48.07,0,0,1,2.15,12.7,56.27,56.27,0,0,1-.57,10.5,41.77,41.77,0,0,1-1.58,6.92c-.23.8-.51,1.39-.66,1.81A2.68,2.68,0,0,1,167.8,316.76Z" style="fill:#263238"></path><path d="M312.27,307.2a3.11,3.11,0,0,1,0,.67c0,.49,0,1.12-.08,1.91-.1,1.73-.23,4.11-.39,7-.39,6-.91,14.16-1.5,23.19s-1.22,17.2-1.64,23.19c-.23,2.92-.42,5.3-.56,7-.07.79-.13,1.42-.18,1.91a2.57,2.57,0,0,1-.1.66,3.79,3.79,0,0,1,0-.67c0-.49.05-1.13.08-1.91.09-1.73.23-4.11.39-7,.39-6,.91-14.16,1.49-23.19s1.22-17.2,1.65-23.18c.23-2.92.42-5.31.56-7,.07-.78.13-1.42.18-1.91A4,4,0,0,1,312.27,307.2Z" style="fill:#263238"></path><path d="M251.36,296.76a2.35,2.35,0,0,1-.34-.28l-1-.87-3.55-3.38-5.47-5.31c-2.08-2.07-4.47-4.38-6.92-7.07l.38-.1c-1.15,5-2.46,10.68-3.85,16.72l-.15.63-.32-.56c-1.46-2.51-3-5.12-4.46-7.81-6.78-12.13-12.62-23.26-17-31.24l-5.2-9.44c-.6-1.08-1.07-1.94-1.42-2.56l-.36-.67a.13.13,0,1,1,.05,0l.4.65,1.51,2.51c1.29,2.2,3.12,5.39,5.34,9.36,4.46,7.94,10.35,19.05,17.12,31.16,1.5,2.69,3,5.31,4.45,7.81l-.47.07c1.42-6,2.74-11.68,3.92-16.7l.1-.41.28.32c2.42,2.68,4.79,5,6.85,7.11l5.39,5.38,3.46,3.46.91.92A1.9,1.9,0,0,1,251.36,296.76Z" style="fill:#263238"></path><path d="M253.34,295.46a11.2,11.2,0,0,1,.8-1.11l2.25-3.08c1.92-2.66,4.6-6.46,7.72-11l.17-.25.2.23a26.63,26.63,0,0,0,4.67,4.15c1.78,1.27,3.76,2.46,5.71,3.82l-.41.15c0-.11.06-.24.09-.36,2.09-8.65,3.95-16.47,4.79-22.23.45-2.87.72-5.21.87-6.83.08-.77.14-1.39.18-1.87a3.26,3.26,0,0,1,.1-.65,3,3,0,0,1,0,.66c0,.43,0,1.06-.08,1.87-.1,1.63-.31,4-.71,6.87-.76,5.8-2.56,13.66-4.65,22.3l-.09.36-.09.37-.31-.21c-1.93-1.35-3.9-2.54-5.71-3.84a26.3,26.3,0,0,1-4.72-4.25l.37,0c-3.16,4.52-5.9,8.29-7.88,10.9-1,1.31-1.8,2.32-2.37,3-.28.35-.51.6-.66.77S253.35,295.47,253.34,295.46Z" style="fill:#263238"></path><path d="M250.27,372.3a6.58,6.58,0,0,1,0-.77c0-.55,0-1.29,0-2.2,0-2,.1-4.72.17-8.1.13-6.88.3-16.29.5-26.7s.2-19.82.27-26.71c0-3.37,0-6.12.06-8.09,0-.92,0-1.65,0-2.2a4.69,4.69,0,0,1,.05-.77,3.93,3.93,0,0,1,.06.77c0,.55,0,1.28.05,2.2,0,2,.06,4.72.1,8.1.05,6.83,0,16.28-.11,26.71s-.41,19.87-.65,26.7c-.14,3.38-.26,6.13-.34,8.09l-.12,2.2A3.68,3.68,0,0,1,250.27,372.3Z" style="fill:#263238"></path><path d="M189.62,416.75a6.09,6.09,0,0,1-.05-.75c0-.53,0-1.25-.07-2.16-.05-1.93-.11-4.66-.19-8-.11-6.88-.27-16.41-.45-27.24l.23.25-7.8-1.3-32.14-5.46-9.74-1.71-2.64-.49-.68-.14-.23-.07.24,0,.69.09,2.66.39,9.75,1.55,32.16,5.3,7.79,1.31.22,0v.21c.1,10.83.2,20.37.27,27.24,0,3.39,0,6.11,0,8,0,.91,0,1.63,0,2.16A4,4,0,0,1,189.62,416.75Z" style="fill:#263238"></path><path d="M137.66,370.1c0,.1-1.75.22-4.49.87a36.11,36.11,0,0,0-4.72,1.49,38.37,38.37,0,0,0-5.41,2.7,38.94,38.94,0,0,0-4.87,3.6,35.36,35.36,0,0,0-3.47,3.52c-1.83,2.15-2.73,3.67-2.82,3.61a5.79,5.79,0,0,1,.59-1.09,14.19,14.19,0,0,1,.79-1.21c.34-.46.69-1,1.16-1.54a31,31,0,0,1,3.43-3.65,35.21,35.21,0,0,1,4.92-3.68,35.86,35.86,0,0,1,5.51-2.71,31.56,31.56,0,0,1,4.81-1.4c.69-.17,1.33-.24,1.89-.33a13.33,13.33,0,0,1,1.44-.15A4.89,4.89,0,0,1,137.66,370.1Z" style="fill:#263238"></path><path d="M164.79,326.11a3.32,3.32,0,0,1-.23.47l-.75,1.31L161,332.64c-2.41,4-5.78,9.52-9.52,15.6s-7.17,11.56-9.66,15.51l-3,4.67-.83,1.26c-.19.28-.3.43-.32.42a2.63,2.63,0,0,1,.23-.48l.75-1.31,2.84-4.75c2.41-4,5.78-9.52,9.52-15.6s7.16-11.55,9.66-15.51l3-4.67c.33-.5.6-.92.83-1.25S164.77,326.1,164.79,326.11Z" style="fill:#263238"></path><g style="opacity:0.30000000000000004"><path d="M147.91,366.26c11.13-9.47,17.89-25.88,16.67-40.44l-17.21,28.87Z"></path></g><g style="opacity:0.30000000000000004"><polygon points="208.37 256.43 229.28 303.76 236.8 289.65 248.28 293.77 234.3 279.7 230.41 296.41 208.37 256.43"></polygon></g><g style="opacity:0.30000000000000004"><path d="M340.48,364c8.93-4.71,17.33-8.35,27.38-7.44a14.43,14.43,0,0,1,4.05.81,4,4,0,0,1,1.62,2.91,109.48,109.48,0,0,0-32.16,3.58"></path></g><g style="opacity:0.30000000000000004"><path d="M312.72,301.3c0,.77-2.62,39.76-2.67,40.53C316.65,329,318.79,314.42,312.72,301.3Z"></path></g><path d="M269.33,259.9c.54-7,1-12.92,1.11-13.64,0,0,24-.39,27.53-23.83,1.71-11.32,3.34-34.94,4.56-56.32a44.15,44.15,0,0,0-38-46.23l-2.26-.31c-24.62-2-40,17.86-41.32,42.52l-4.56,76.32,35.57,51.24,2.91,0Z" style="fill:#ffbf9d"></path><path d="M270.44,246.26s-14.92-1.18-29.31-13.27c0,0,5.08,18.18,28.79,19.31Z" style="fill:#ff9a6c"></path><path d="M261.62,173.15c-.5.45-3.08-1.92-7-2.28s-7,1.39-7.4.85c-.19-.24.35-1.08,1.7-1.9a9.85,9.85,0,0,1,6-1.28,9.47,9.47,0,0,1,5.53,2.43C261.53,172,261.86,173,261.62,173.15Z" style="fill:#263238"></path><path d="M259,183.46a3.2,3.2,0,0,1-3.5,2.77,3,3,0,0,1-2.87-3.31,3.21,3.21,0,0,1,3.49-2.78A3.08,3.08,0,0,1,259,183.46Z" style="fill:#263238"></path><path d="M269.72,201.26c0-.21,2.31-.28,6-.24.93,0,1.83,0,2.07-.64a4.8,4.8,0,0,0-.23-2.82c-.56-2.34-1.14-4.81-1.76-7.39-2.4-10.51-4-19.1-3.57-19.19s2.71,8.35,5.11,18.86c.57,2.59,1.12,5.06,1.63,7.42.21,1.09.64,2.36,0,3.68a2.35,2.35,0,0,1-1.7,1.14,7.09,7.09,0,0,1-1.6,0C272,201.77,269.71,201.47,269.72,201.26Z" style="fill:#263238"></path><path d="M260.64,160.35c-.44.85-3.56,0-7.36-.07s-7,.58-7.34-.29c-.17-.41.47-1.18,1.81-1.88a12.41,12.41,0,0,1,11.2.27C260.24,159.14,260.83,159.94,260.64,160.35Z" style="fill:#263238"></path><path d="M297.46,165.47c-.46.69-3.49-.31-7.21-.66s-6.86-.08-7.2-.86c-.15-.36.5-1,1.84-1.45a13.18,13.18,0,0,1,5.58-.55,13.57,13.57,0,0,1,5.41,1.71C297.12,164.41,297.67,165.14,297.46,165.47Z" style="fill:#263238"></path><path d="M220.43,179.74c-.38-.23-15.47-7-17.18,9.11s14.82,14.52,14.9,14.06S220.43,179.74,220.43,179.74Z" style="fill:#ffbf9d"></path><path d="M213.88,196.28c-.07-.06-.31.17-.8.33a2.77,2.77,0,0,1-2.11-.18c-1.63-.8-2.78-3.66-2.55-6.57a9.31,9.31,0,0,1,1.21-3.94A3.26,3.26,0,0,1,212,184a1.44,1.44,0,0,1,1.58.94c.17.48,0,.79.11.83s.38-.24.32-.92a1.77,1.77,0,0,0-.53-1.07,2.11,2.11,0,0,0-1.51-.58,4,4,0,0,0-3.2,2.19,9.68,9.68,0,0,0-1.45,4.39c-.24,3.26,1.1,6.47,3.36,7.39a3,3,0,0,0,2.61-.15C213.81,196.67,213.93,196.31,213.88,196.28Z" style="fill:#ff9a6c"></path><path d="M265.18,212.21c.21-.4-2.9-1.56-4.93-4.67a18.33,18.33,0,0,1-2-4.37c-.39-1.2-.7-2-.88-1.92s-.18.84,0,2.13a12.06,12.06,0,0,0,1.77,4.87,9.9,9.9,0,0,0,3.93,3.43C264.3,212.26,265.13,212.34,265.18,212.21Z" style="fill:#263238"></path><path d="M200.64,152.18c3.73-5.48,5-12.23,7.21-18.48s6.23-12.6,12.61-14.41l.14.07c5.74-1.89,12.65-1.48,17,2.71,1.68-8.33,9.48-14.5,17.82-16.12s21.4.52,29.06,4.19c5.92,2.85,11.47,8.24,18.14,16.07a79.28,79.28,0,0,1,7.6,10.53l5.7,22.48-6.86,11.15a25.55,25.55,0,0,1-1.35,2.27v0l-7.09,24c.08-6.66,2.06-29.71,2.15-36.37a37.06,37.06,0,0,1-25.58-13.89c-3.37-4.25-5.89-9.46-10.58-12.18-6.05-3.49-13.65-1.73-20.38.13l.29-.23a29.49,29.49,0,0,0-9.55,6,92.3,92.3,0,0,1-6.51,38.67c-.74,1.84-2.68,5.61-4.57,6.2-3.72,1.17-4.46-2.59-6.52-4.7-1.51-1.55-3.89-1.89-6.49-2.05-1.28-4.13-2.41-11-3.35-17.06a14.83,14.83,0,0,1-6.82,0q1.22-2.43,2.41-4.86a7.64,7.64,0,0,1-3,1.13,2.65,2.65,0,0,1-2.68-1.38C198.93,154.7,199.85,153.32,200.64,152.18Z" style="fill:#263238"></path><path d="M244.84,125.26a19.72,19.72,0,0,0-2.51,2,17,17,0,0,0-4.12,7.59,29.66,29.66,0,0,0-1,5.95c-.16,2.17-.13,4.51-.12,7a62.48,62.48,0,0,1-.33,7.74,27.48,27.48,0,0,1-.8,4,8.45,8.45,0,0,1-1.92,3.85,3.54,3.54,0,0,1-3.4.9,5.3,5.3,0,0,1-2.88-1.88c-1.4-1.87-1.63-4.14-1.88-6.14l.49.09a19.76,19.76,0,0,1-3.19,4.75,7.05,7.05,0,0,1-4.75,2.2,4.57,4.57,0,0,1-2.4-.58,3.93,3.93,0,0,1-1.55-1.74,4,4,0,0,1-.36-2.12,2.86,2.86,0,0,1,.88-1.78l.23.24a15.22,15.22,0,0,1-5.31,3.47,13.71,13.71,0,0,1-1.61.5,3,3,0,0,1-.57.11,2.41,2.41,0,0,1,.55-.19c.36-.13.89-.3,1.56-.59a15.88,15.88,0,0,0,5.14-3.54l.24.24a3,3,0,0,0-.39,3.49,3.58,3.58,0,0,0,1.4,1.54,4.11,4.11,0,0,0,2.18.5,6.58,6.58,0,0,0,4.41-2.1,19.48,19.48,0,0,0,3.08-4.65l.39-.73.1.82c.25,2,.51,4.19,1.79,5.87a4.81,4.81,0,0,0,2.58,1.69,3,3,0,0,0,2.89-.77,8.09,8.09,0,0,0,1.78-3.6,26.15,26.15,0,0,0,.78-4,63.19,63.19,0,0,0,.36-7.67c0-2.46,0-4.81.17-7a29.49,29.49,0,0,1,1.07-6,16.78,16.78,0,0,1,4.35-7.64A9.65,9.65,0,0,1,244.84,125.26Z" style="fill:#455a64"></path><path d="M316.28,152.93l-.2.15-.62.39a7.84,7.84,0,0,1-1,.57,14.18,14.18,0,0,1-1.48.67,21.12,21.12,0,0,1-10.21,1.16,26.85,26.85,0,0,1-13.89-6.18,46.37,46.37,0,0,1-11.31-14.88c-1.53-3-2.73-6-4.1-8.79a31.29,31.29,0,0,0-4.8-7.52,16.13,16.13,0,0,0-6.53-4.56,11.49,11.49,0,0,0-3.55-.65,12.74,12.74,0,0,0-3.32.42,13.63,13.63,0,0,0-8,5.92,17,17,0,0,0-1.45,3.46.66.66,0,0,1,0-.25c0-.19.09-.43.16-.72a11.46,11.46,0,0,1,1.06-2.6,13.63,13.63,0,0,1,8.08-6.18,13,13,0,0,1,3.42-.47,11.86,11.86,0,0,1,3.71.64,16.55,16.55,0,0,1,6.75,4.65,31.6,31.6,0,0,1,4.91,7.63c1.38,2.82,2.59,5.83,4.11,8.77a46.3,46.3,0,0,0,11.14,14.74,26.6,26.6,0,0,0,13.61,6.18,21.23,21.23,0,0,0,10.08-1A35.2,35.2,0,0,0,316.28,152.93Z" style="fill:#455a64"></path><path d="M297.51,177c-.5.45-3.07-1.92-7-2.28s-7,1.38-7.39.84c-.19-.24.35-1.08,1.7-1.9a10,10,0,0,1,6-1.28,9.59,9.59,0,0,1,5.53,2.43C297.43,175.86,297.76,176.78,297.51,177Z" style="fill:#263238"></path><path d="M291.68,186.82a3.21,3.21,0,0,1-3.5,2.78,3.07,3.07,0,0,1-2.88-3.31,3.2,3.2,0,0,1,3.5-2.78A3.07,3.07,0,0,1,291.68,186.82Z" style="fill:#263238"></path><path d="M308.42,133.9c1.8,2.8,4.7,5.45,8,5.35a24.78,24.78,0,0,0,3.6-.76c1.1.79.52,4.72-.36,5.75A21.53,21.53,0,0,1,317,146.6c3.71,2.39,7.31,1.63,11.56.44a20.31,20.31,0,0,1-13.28,15.3c-2.15.72-4.72,1-6.52-.37-1.58-1.21-2.11-3.33-2.46-5.3a88.56,88.56,0,0,1-1.22-21.87Z" style="fill:#263238"></path></g></svg>