<?xml version="1.0" standalone="no"?>
<!DOCTYPE svg PUBLIC "-//W3C//DTD SVG 20010904//EN"
 "http://www.w3.org/TR/2001/REC-SVG-20010904/DTD/svg10.dtd">
<svg version="1.0" xmlns="http://www.w3.org/2000/svg"
 width="500.000000pt" height="500.000000pt" viewBox="0 0 500.000000 500.000000"
 preserveAspectRatio="xMidYMid meet">
<metadata>
Created by potrace 1.14, written by Peter Selinger 2001-2017
</metadata>
<g transform="translate(0.000000,500.000000) scale(0.100000,-0.100000)"
fill="#000000" stroke="none">
<path d="M2240 4985 c-579 -64 -1091 -308 -1501 -715 -424 -421 -672 -951
-729 -1555 -71 -766 241 -1557 817 -2071 878 -782 2147 -859 3108 -189 944
659 1313 1890 889 2965 -251 635 -767 1151 -1404 1403 -369 147 -793 205
-1180 162z m609 -285 c474 -81 885 -288 1209 -610 409 -406 632 -906 667
-1495 8 -129 -7 -337 -35 -493 -125 -692 -576 -1287 -1215 -1602 -309 -152
-625 -223 -985 -223 -357 1 -660 72 -977 229 -433 214 -780 556 -997 984 -108
212 -170 399 -213 640 -22 126 -26 174 -26 365 0 296 29 476 122 746 216 627
732 1144 1356 1359 178 61 414 112 575 124 125 9 402 -4 519 -24z"/>
<path d="M1497 3303 c-4 -3 -7 -294 -7 -645 l0 -638 126 0 127 0 -7 468 c-3
257 -9 485 -12 507 -4 22 -3 37 1 33 4 -3 75 -231 160 -505 l152 -498 126 -3
126 -3 166 506 c92 278 168 505 171 505 2 0 1 -60 -2 -132 l-7 -133 67 72 c37
40 94 89 127 109 l59 37 0 164 0 163 -186 -2 -186 -3 -84 -255 c-46 -140 -118
-360 -160 -489 -42 -128 -79 -229 -84 -225 -4 5 -71 216 -149 469 -78 253
-146 470 -151 483 -9 22 -12 22 -188 22 -98 0 -182 -3 -185 -7z"/>
<path d="M3024 2960 c-292 -76 -454 -319 -454 -678 0 -297 97 -508 281 -615
24 -14 78 -36 119 -49 137 -42 398 -28 543 29 l37 15 0 120 c0 110 -1 120 -17
113 -84 -33 -217 -58 -318 -59 -102 -1 -114 1 -168 27 -101 50 -157 148 -177
314 -19 149 4 307 57 406 87 158 265 200 481 113 52 -21 96 -36 98 -33 3 2 24
53 48 113 l44 109 -25 13 c-141 75 -392 104 -549 62z"/>
</g>
</svg>
